<svg xmlns="http://www.w3.org/2000/svg" xmlns:xlink="http://www.w3.org/1999/xlink" width="251" zoomAndPan="magnify" viewBox="0 0 188.25 47.25" height="63" preserveAspectRatio="xMidYMid meet" version="1.0"><defs><g/><clipPath id="20d8eaf0c8"><path d="M 1.101562 0 L 186.25 0 L 186.25 37.960938 L 1.101562 37.960938 Z M 1.101562 0 " clip-rule="nonzero"/></clipPath><clipPath id="4ada17bb56"><path d="M 20.082031 0 L 167.269531 0 C 172.304688 0 177.132812 2 180.691406 5.558594 C 184.25 9.117188 186.25 13.945312 186.25 18.980469 C 186.25 24.011719 184.25 28.839844 180.691406 32.402344 C 177.132812 35.960938 172.304688 37.960938 167.269531 37.960938 L 20.082031 37.960938 C 15.046875 37.960938 10.21875 35.960938 6.660156 32.402344 C 3.101562 28.839844 1.101562 24.011719 1.101562 18.980469 C 1.101562 13.945312 3.101562 9.117188 6.660156 5.558594 C 10.21875 2 15.046875 0 20.082031 0 Z M 20.082031 0 " clip-rule="nonzero"/></clipPath><linearGradient x1="0.00366211" gradientTransform="matrix(0.148279, 0, 0, 0.148279, 1.10102, 0.000000984375)" y1="128" x2="1248.647984" gradientUnits="userSpaceOnUse" y2="128" id="bbc73a3469"><stop stop-opacity="1" stop-color="rgb(96.499634%, 68.598938%, 22.399902%)" offset="0"/><stop stop-opacity="1" stop-color="rgb(96.482849%, 68.490601%, 22.410583%)" offset="0.0078125"/><stop stop-opacity="1" stop-color="rgb(96.452332%, 68.2724%, 22.434998%)" offset="0.015625"/><stop stop-opacity="1" stop-color="rgb(96.420288%, 68.055725%, 22.459412%)" offset="0.0234375"/><stop stop-opacity="1" stop-color="rgb(96.389771%, 67.83905%, 22.483826%)" offset="0.03125"/><stop stop-opacity="1" stop-color="rgb(96.357727%, 67.62085%, 22.50824%)" offset="0.0390625"/><stop stop-opacity="1" stop-color="rgb(96.327209%, 67.404175%, 22.532654%)" offset="0.046875"/><stop stop-opacity="1" stop-color="rgb(96.295166%, 67.1875%, 22.557068%)" offset="0.0546875"/><stop stop-opacity="1" stop-color="rgb(96.264648%, 66.969299%, 22.581482%)" offset="0.0625"/><stop stop-opacity="1" stop-color="rgb(96.232605%, 66.752625%, 22.60437%)" offset="0.0703125"/><stop stop-opacity="1" stop-color="rgb(96.202087%, 66.53595%, 22.628784%)" offset="0.078125"/><stop stop-opacity="1" stop-color="rgb(96.170044%, 66.317749%, 22.653198%)" offset="0.0859375"/><stop stop-opacity="1" stop-color="rgb(96.139526%, 66.101074%, 22.677612%)" offset="0.09375"/><stop stop-opacity="1" stop-color="rgb(96.107483%, 65.884399%, 22.702026%)" offset="0.101562"/><stop stop-opacity="1" stop-color="rgb(96.076965%, 65.666199%, 22.72644%)" offset="0.109375"/><stop stop-opacity="1" stop-color="rgb(96.046448%, 65.449524%, 22.750854%)" offset="0.117187"/><stop stop-opacity="1" stop-color="rgb(96.014404%, 65.232849%, 22.775269%)" offset="0.125"/><stop stop-opacity="1" stop-color="rgb(95.983887%, 65.014648%, 22.798157%)" offset="0.132812"/><stop stop-opacity="1" stop-color="rgb(95.951843%, 64.797974%, 22.822571%)" offset="0.140625"/><stop stop-opacity="1" stop-color="rgb(95.921326%, 64.581299%, 22.846985%)" offset="0.148437"/><stop stop-opacity="1" stop-color="rgb(95.889282%, 64.363098%, 22.871399%)" offset="0.15625"/><stop stop-opacity="1" stop-color="rgb(95.858765%, 64.146423%, 22.895813%)" offset="0.164062"/><stop stop-opacity="1" stop-color="rgb(95.826721%, 63.929749%, 22.920227%)" offset="0.171875"/><stop stop-opacity="1" stop-color="rgb(95.796204%, 63.711548%, 22.944641%)" offset="0.179687"/><stop stop-opacity="1" stop-color="rgb(95.76416%, 63.494873%, 22.967529%)" offset="0.1875"/><stop stop-opacity="1" stop-color="rgb(95.733643%, 63.278198%, 22.991943%)" offset="0.195312"/><stop stop-opacity="1" stop-color="rgb(95.701599%, 63.059998%, 23.016357%)" offset="0.203125"/><stop stop-opacity="1" stop-color="rgb(95.671082%, 62.843323%, 23.040771%)" offset="0.210938"/><stop stop-opacity="1" stop-color="rgb(95.639038%, 62.626648%, 23.065186%)" offset="0.21875"/><stop stop-opacity="1" stop-color="rgb(95.608521%, 62.408447%, 23.0896%)" offset="0.226562"/><stop stop-opacity="1" stop-color="rgb(95.576477%, 62.191772%, 23.114014%)" offset="0.234375"/><stop stop-opacity="1" stop-color="rgb(95.545959%, 61.975098%, 23.138428%)" offset="0.242188"/><stop stop-opacity="1" stop-color="rgb(95.513916%, 61.756897%, 23.161316%)" offset="0.25"/><stop stop-opacity="1" stop-color="rgb(95.483398%, 61.540222%, 23.18573%)" offset="0.257812"/><stop stop-opacity="1" stop-color="rgb(95.451355%, 61.323547%, 23.210144%)" offset="0.265625"/><stop stop-opacity="1" stop-color="rgb(95.420837%, 61.105347%, 23.234558%)" offset="0.273438"/><stop stop-opacity="1" stop-color="rgb(95.388794%, 60.888672%, 23.258972%)" offset="0.28125"/><stop stop-opacity="1" stop-color="rgb(95.358276%, 60.671997%, 23.283386%)" offset="0.289063"/><stop stop-opacity="1" stop-color="rgb(95.326233%, 60.453796%, 23.3078%)" offset="0.296875"/><stop stop-opacity="1" stop-color="rgb(95.295715%, 60.237122%, 23.332214%)" offset="0.304688"/><stop stop-opacity="1" stop-color="rgb(95.265198%, 60.020447%, 23.355103%)" offset="0.3125"/><stop stop-opacity="1" stop-color="rgb(95.233154%, 59.802246%, 23.379517%)" offset="0.320312"/><stop stop-opacity="1" stop-color="rgb(95.202637%, 59.585571%, 23.403931%)" offset="0.328125"/><stop stop-opacity="1" stop-color="rgb(95.170593%, 59.368896%, 23.428345%)" offset="0.335938"/><stop stop-opacity="1" stop-color="rgb(95.140076%, 59.150696%, 23.452759%)" offset="0.34375"/><stop stop-opacity="1" stop-color="rgb(95.108032%, 58.934021%, 23.477173%)" offset="0.351562"/><stop stop-opacity="1" stop-color="rgb(95.077515%, 58.717346%, 23.501587%)" offset="0.359375"/><stop stop-opacity="1" stop-color="rgb(95.045471%, 58.499146%, 23.526001%)" offset="0.367188"/><stop stop-opacity="1" stop-color="rgb(95.014954%, 58.282471%, 23.548889%)" offset="0.375"/><stop stop-opacity="1" stop-color="rgb(94.98291%, 58.065796%, 23.573303%)" offset="0.382812"/><stop stop-opacity="1" stop-color="rgb(94.952393%, 57.847595%, 23.597717%)" offset="0.390625"/><stop stop-opacity="1" stop-color="rgb(94.920349%, 57.63092%, 23.622131%)" offset="0.398438"/><stop stop-opacity="1" stop-color="rgb(94.889832%, 57.414246%, 23.646545%)" offset="0.40625"/><stop stop-opacity="1" stop-color="rgb(94.857788%, 57.196045%, 23.670959%)" offset="0.414062"/><stop stop-opacity="1" stop-color="rgb(94.827271%, 56.97937%, 23.695374%)" offset="0.421875"/><stop stop-opacity="1" stop-color="rgb(94.795227%, 56.762695%, 23.719788%)" offset="0.429688"/><stop stop-opacity="1" stop-color="rgb(94.764709%, 56.544495%, 23.742676%)" offset="0.4375"/><stop stop-opacity="1" stop-color="rgb(94.732666%, 56.32782%, 23.76709%)" offset="0.445312"/><stop stop-opacity="1" stop-color="rgb(94.702148%, 56.111145%, 23.791504%)" offset="0.453125"/><stop stop-opacity="1" stop-color="rgb(94.670105%, 55.892944%, 23.815918%)" offset="0.460938"/><stop stop-opacity="1" stop-color="rgb(94.639587%, 55.67627%, 23.840332%)" offset="0.46875"/><stop stop-opacity="1" stop-color="rgb(94.607544%, 55.459595%, 23.864746%)" offset="0.476562"/><stop stop-opacity="1" stop-color="rgb(94.577026%, 55.241394%, 23.88916%)" offset="0.484375"/><stop stop-opacity="1" stop-color="rgb(94.544983%, 55.024719%, 23.913574%)" offset="0.492187"/><stop stop-opacity="1" stop-color="rgb(94.514465%, 54.808044%, 23.936462%)" offset="0.5"/><stop stop-opacity="1" stop-color="rgb(94.483948%, 54.589844%, 23.960876%)" offset="0.507812"/><stop stop-opacity="1" stop-color="rgb(94.451904%, 54.373169%, 23.985291%)" offset="0.515625"/><stop stop-opacity="1" stop-color="rgb(94.421387%, 54.156494%, 24.009705%)" offset="0.523437"/><stop stop-opacity="1" stop-color="rgb(94.389343%, 53.938293%, 24.034119%)" offset="0.53125"/><stop stop-opacity="1" stop-color="rgb(94.358826%, 53.721619%, 24.058533%)" offset="0.539062"/><stop stop-opacity="1" stop-color="rgb(94.326782%, 53.504944%, 24.082947%)" offset="0.546875"/><stop stop-opacity="1" stop-color="rgb(94.296265%, 53.286743%, 24.105835%)" offset="0.554688"/><stop stop-opacity="1" stop-color="rgb(94.264221%, 53.070068%, 24.130249%)" offset="0.5625"/><stop stop-opacity="1" stop-color="rgb(94.233704%, 52.853394%, 24.154663%)" offset="0.570312"/><stop stop-opacity="1" stop-color="rgb(94.20166%, 52.635193%, 24.179077%)" offset="0.578125"/><stop stop-opacity="1" stop-color="rgb(94.171143%, 52.418518%, 24.203491%)" offset="0.585938"/><stop stop-opacity="1" stop-color="rgb(94.139099%, 52.201843%, 24.227905%)" offset="0.59375"/><stop stop-opacity="1" stop-color="rgb(94.108582%, 51.983643%, 24.252319%)" offset="0.601562"/><stop stop-opacity="1" stop-color="rgb(94.076538%, 51.766968%, 24.276733%)" offset="0.609375"/><stop stop-opacity="1" stop-color="rgb(94.046021%, 51.550293%, 24.299622%)" offset="0.617187"/><stop stop-opacity="1" stop-color="rgb(94.013977%, 51.332092%, 24.324036%)" offset="0.625"/><stop stop-opacity="1" stop-color="rgb(93.983459%, 51.115417%, 24.34845%)" offset="0.632812"/><stop stop-opacity="1" stop-color="rgb(93.951416%, 50.898743%, 24.372864%)" offset="0.640625"/><stop stop-opacity="1" stop-color="rgb(93.920898%, 50.680542%, 24.397278%)" offset="0.648438"/><stop stop-opacity="1" stop-color="rgb(93.888855%, 50.463867%, 24.421692%)" offset="0.65625"/><stop stop-opacity="1" stop-color="rgb(93.858337%, 50.247192%, 24.446106%)" offset="0.664062"/><stop stop-opacity="1" stop-color="rgb(93.826294%, 50.028992%, 24.47052%)" offset="0.671875"/><stop stop-opacity="1" stop-color="rgb(93.795776%, 49.812317%, 24.493408%)" offset="0.679688"/><stop stop-opacity="1" stop-color="rgb(93.763733%, 49.595642%, 24.517822%)" offset="0.6875"/><stop stop-opacity="1" stop-color="rgb(93.733215%, 49.377441%, 24.542236%)" offset="0.695312"/><stop stop-opacity="1" stop-color="rgb(93.702698%, 49.160767%, 24.56665%)" offset="0.703125"/><stop stop-opacity="1" stop-color="rgb(93.670654%, 48.944092%, 24.591064%)" offset="0.710937"/><stop stop-opacity="1" stop-color="rgb(93.640137%, 48.725891%, 24.615479%)" offset="0.71875"/><stop stop-opacity="1" stop-color="rgb(93.608093%, 48.509216%, 24.639893%)" offset="0.726562"/><stop stop-opacity="1" stop-color="rgb(93.577576%, 48.292542%, 24.664307%)" offset="0.734375"/><stop stop-opacity="1" stop-color="rgb(93.545532%, 48.074341%, 24.687195%)" offset="0.742187"/><stop stop-opacity="1" stop-color="rgb(93.515015%, 47.857666%, 24.711609%)" offset="0.75"/><stop stop-opacity="1" stop-color="rgb(93.482971%, 47.640991%, 24.736023%)" offset="0.757812"/><stop stop-opacity="1" stop-color="rgb(93.452454%, 47.422791%, 24.760437%)" offset="0.765625"/><stop stop-opacity="1" stop-color="rgb(93.42041%, 47.206116%, 24.784851%)" offset="0.773438"/><stop stop-opacity="1" stop-color="rgb(93.389893%, 46.989441%, 24.809265%)" offset="0.78125"/><stop stop-opacity="1" stop-color="rgb(93.357849%, 46.77124%, 24.833679%)" offset="0.789062"/><stop stop-opacity="1" stop-color="rgb(93.327332%, 46.554565%, 24.858093%)" offset="0.796875"/><stop stop-opacity="1" stop-color="rgb(93.295288%, 46.337891%, 24.880981%)" offset="0.804688"/><stop stop-opacity="1" stop-color="rgb(93.264771%, 46.11969%, 24.905396%)" offset="0.8125"/><stop stop-opacity="1" stop-color="rgb(93.232727%, 45.903015%, 24.92981%)" offset="0.820312"/><stop stop-opacity="1" stop-color="rgb(93.202209%, 45.68634%, 24.954224%)" offset="0.828125"/><stop stop-opacity="1" stop-color="rgb(93.170166%, 45.46814%, 24.978638%)" offset="0.835938"/><stop stop-opacity="1" stop-color="rgb(93.139648%, 45.251465%, 25.003052%)" offset="0.84375"/><stop stop-opacity="1" stop-color="rgb(93.107605%, 45.03479%, 25.027466%)" offset="0.851562"/><stop stop-opacity="1" stop-color="rgb(93.077087%, 44.816589%, 25.050354%)" offset="0.859375"/><stop stop-opacity="1" stop-color="rgb(93.045044%, 44.599915%, 25.074768%)" offset="0.867188"/><stop stop-opacity="1" stop-color="rgb(93.014526%, 44.38324%, 25.099182%)" offset="0.875"/><stop stop-opacity="1" stop-color="rgb(92.982483%, 44.165039%, 25.123596%)" offset="0.882812"/><stop stop-opacity="1" stop-color="rgb(92.951965%, 43.948364%, 25.14801%)" offset="0.890625"/><stop stop-opacity="1" stop-color="rgb(92.921448%, 43.731689%, 25.172424%)" offset="0.898438"/><stop stop-opacity="1" stop-color="rgb(92.889404%, 43.513489%, 25.196838%)" offset="0.90625"/><stop stop-opacity="1" stop-color="rgb(92.858887%, 43.296814%, 25.221252%)" offset="0.914062"/><stop stop-opacity="1" stop-color="rgb(92.826843%, 43.080139%, 25.244141%)" offset="0.921875"/><stop stop-opacity="1" stop-color="rgb(92.796326%, 42.861938%, 25.268555%)" offset="0.929688"/><stop stop-opacity="1" stop-color="rgb(92.764282%, 42.645264%, 25.292969%)" offset="0.9375"/><stop stop-opacity="1" stop-color="rgb(92.733765%, 42.428589%, 25.317383%)" offset="0.945312"/><stop stop-opacity="1" stop-color="rgb(92.701721%, 42.210388%, 25.341797%)" offset="0.953125"/><stop stop-opacity="1" stop-color="rgb(92.671204%, 41.993713%, 25.366211%)" offset="0.960937"/><stop stop-opacity="1" stop-color="rgb(92.63916%, 41.777039%, 25.390625%)" offset="0.96875"/><stop stop-opacity="1" stop-color="rgb(92.608643%, 41.558838%, 25.415039%)" offset="0.976562"/><stop stop-opacity="1" stop-color="rgb(92.576599%, 41.342163%, 25.437927%)" offset="0.984375"/><stop stop-opacity="1" stop-color="rgb(92.546082%, 41.125488%, 25.462341%)" offset="0.992188"/><stop stop-opacity="1" stop-color="rgb(92.514038%, 40.907288%, 25.486755%)" offset="1"/></linearGradient></defs><g clip-path="url(#20d8eaf0c8)"><g clip-path="url(#4ada17bb56)"><path fill="url(#bbc73a3469)" d="M 1.101562 0 L 1.101562 37.960938 L 186.25 37.960938 L 186.25 0 Z M 1.101562 0 " fill-rule="nonzero"/></g></g><g fill="#fffaf2" fill-opacity="1"><g transform="translate(11.818177, 22.148437)"><g><path d="M 5.65625 -9.75 L 9.59375 0 L 7.203125 0 L 6.484375 -1.953125 L 2.78125 -1.953125 L 2.0625 0 L -0.328125 0 L 3.609375 -9.75 Z M 5.734375 -3.890625 L 4.640625 -6.734375 L 4.625 -6.734375 L 3.53125 -3.890625 Z M 5.734375 -3.890625 "/></g></g></g><g fill="#fffaf2" fill-opacity="1"><g transform="translate(21.079192, 22.148437)"><g><path d="M 1.109375 -0.75 C 0.546875 -1.363281 0.265625 -2.117188 0.265625 -3.015625 C 0.265625 -3.921875 0.546875 -4.679688 1.109375 -5.296875 C 1.679688 -5.921875 2.40625 -6.234375 3.28125 -6.234375 C 4.082031 -6.234375 4.742188 -5.984375 5.265625 -5.484375 L 5.265625 -10.15625 L 7.359375 -10.15625 L 7.359375 0 L 5.296875 0 L 5.296875 -0.6875 L 5.265625 -0.6875 C 4.742188 -0.113281 4.082031 0.171875 3.28125 0.171875 C 2.40625 0.171875 1.679688 -0.132812 1.109375 -0.75 Z M 2.90625 -4.046875 C 2.632812 -3.785156 2.5 -3.441406 2.5 -3.015625 C 2.5 -2.597656 2.625 -2.257812 2.875 -2 C 3.132812 -1.738281 3.476562 -1.609375 3.90625 -1.609375 C 4.320312 -1.609375 4.660156 -1.738281 4.921875 -2 C 5.179688 -2.269531 5.3125 -2.613281 5.3125 -3.03125 C 5.3125 -3.445312 5.175781 -3.785156 4.90625 -4.046875 C 4.632812 -4.316406 4.300781 -4.453125 3.90625 -4.453125 C 3.507812 -4.453125 3.175781 -4.316406 2.90625 -4.046875 Z M 2.90625 -4.046875 "/></g></g></g><g fill="#fffaf2" fill-opacity="1"><g transform="translate(29.147147, 22.148437)"><g><path d="M 1.109375 -0.75 C 0.546875 -1.363281 0.265625 -2.117188 0.265625 -3.015625 C 0.265625 -3.921875 0.546875 -4.679688 1.109375 -5.296875 C 1.679688 -5.921875 2.40625 -6.234375 3.28125 -6.234375 C 4.082031 -6.234375 4.742188 -5.984375 5.265625 -5.484375 L 5.265625 -10.15625 L 7.359375 -10.15625 L 7.359375 0 L 5.296875 0 L 5.296875 -0.6875 L 5.265625 -0.6875 C 4.742188 -0.113281 4.082031 0.171875 3.28125 0.171875 C 2.40625 0.171875 1.679688 -0.132812 1.109375 -0.75 Z M 2.90625 -4.046875 C 2.632812 -3.785156 2.5 -3.441406 2.5 -3.015625 C 2.5 -2.597656 2.625 -2.257812 2.875 -2 C 3.132812 -1.738281 3.476562 -1.609375 3.90625 -1.609375 C 4.320312 -1.609375 4.660156 -1.738281 4.921875 -2 C 5.179688 -2.269531 5.3125 -2.613281 5.3125 -3.03125 C 5.3125 -3.445312 5.175781 -3.785156 4.90625 -4.046875 C 4.632812 -4.316406 4.300781 -4.453125 3.90625 -4.453125 C 3.507812 -4.453125 3.175781 -4.316406 2.90625 -4.046875 Z M 2.90625 -4.046875 "/></g></g></g><g fill="#fffaf2" fill-opacity="1"><g transform="translate(37.215102, 22.148437)"><g/></g></g><g fill="#fffaf2" fill-opacity="1"><g transform="translate(40.439923, 22.148437)"><g><path d="M 2.921875 -6.046875 L 2.921875 0 L 0.703125 0 L 0.703125 -9.75 L 2.921875 -9.75 L 6.796875 -3.703125 L 6.828125 -3.703125 L 6.828125 -9.75 L 9.046875 -9.75 L 9.046875 0 L 6.828125 0 L 2.953125 -6.046875 Z M 2.921875 -6.046875 "/></g></g></g><g fill="#fffaf2" fill-opacity="1"><g transform="translate(50.197073, 22.148437)"><g><path d="M 6.84375 -2.734375 L 2.4375 -2.734375 C 2.4375 -2.316406 2.570312 -2.003906 2.84375 -1.796875 C 3.125 -1.585938 3.425781 -1.484375 3.75 -1.484375 C 4.09375 -1.484375 4.363281 -1.53125 4.5625 -1.625 C 4.757812 -1.71875 4.984375 -1.894531 5.234375 -2.15625 L 6.75 -1.40625 C 6.113281 -0.351562 5.066406 0.171875 3.609375 0.171875 C 2.691406 0.171875 1.90625 -0.140625 1.25 -0.765625 C 0.59375 -1.390625 0.265625 -2.140625 0.265625 -3.015625 C 0.265625 -3.898438 0.59375 -4.65625 1.25 -5.28125 C 1.90625 -5.914062 2.691406 -6.234375 3.609375 -6.234375 C 4.566406 -6.234375 5.34375 -5.957031 5.9375 -5.40625 C 6.539062 -4.851562 6.84375 -4.0625 6.84375 -3.03125 C 6.84375 -2.882812 6.84375 -2.785156 6.84375 -2.734375 Z M 2.5 -3.890625 L 4.8125 -3.890625 C 4.757812 -4.210938 4.632812 -4.457031 4.4375 -4.625 C 4.238281 -4.789062 3.976562 -4.875 3.65625 -4.875 C 3.3125 -4.875 3.035156 -4.78125 2.828125 -4.59375 C 2.628906 -4.414062 2.519531 -4.179688 2.5 -3.890625 Z M 2.5 -3.890625 "/></g></g></g><g fill="#fffaf2" fill-opacity="1"><g transform="translate(57.320028, 22.148437)"><g><path d="M 4.421875 0 L 3.015625 0 L -0.234375 -6.0625 L 2.171875 -6.0625 L 3.65625 -2.78125 L 5.109375 -6.0625 L 6.546875 -6.0625 L 8 -2.78125 L 9.46875 -6.0625 L 11.890625 -6.0625 L 8.640625 0 L 7.21875 0 L 5.828125 -3.125 Z M 4.421875 0 "/></g></g></g><g fill="#fffaf2" fill-opacity="1"><g transform="translate(68.967176, 22.148437)"><g/></g></g><g fill="#fffaf2" fill-opacity="1"><g transform="translate(72.191997, 22.148437)"><g><path d="M 0.703125 -9.75 L 4.265625 -9.75 C 5.253906 -9.75 6.054688 -9.488281 6.671875 -8.96875 C 7.285156 -8.457031 7.59375 -7.710938 7.59375 -6.734375 C 7.59375 -5.765625 7.28125 -5 6.65625 -4.4375 C 6.039062 -3.882812 5.242188 -3.609375 4.265625 -3.609375 L 2.921875 -3.609375 L 2.921875 0 L 0.703125 0 Z M 2.921875 -5.390625 L 3.5625 -5.390625 C 4.050781 -5.390625 4.453125 -5.488281 4.765625 -5.6875 C 5.085938 -5.882812 5.25 -6.210938 5.25 -6.671875 C 5.25 -7.140625 5.085938 -7.472656 4.765625 -7.671875 C 4.453125 -7.867188 4.050781 -7.96875 3.5625 -7.96875 L 2.921875 -7.96875 Z M 2.921875 -5.390625 "/></g></g></g><g fill="#fffaf2" fill-opacity="1"><g transform="translate(80.059137, 22.148437)"><g><path d="M 0.703125 0 L 0.703125 -6.0625 L 2.796875 -6.0625 L 2.796875 -5.1875 L 2.828125 -5.1875 C 2.835938 -5.21875 2.859375 -5.253906 2.890625 -5.296875 C 2.929688 -5.347656 3.007812 -5.429688 3.125 -5.546875 C 3.25 -5.671875 3.375 -5.78125 3.5 -5.875 C 3.632812 -5.96875 3.804688 -6.050781 4.015625 -6.125 C 4.234375 -6.195312 4.453125 -6.234375 4.671875 -6.234375 C 4.898438 -6.234375 5.125 -6.203125 5.34375 -6.140625 C 5.570312 -6.078125 5.734375 -6.015625 5.828125 -5.953125 L 6 -5.859375 L 5.125 -4.09375 C 4.863281 -4.3125 4.503906 -4.421875 4.046875 -4.421875 C 3.785156 -4.421875 3.566406 -4.363281 3.390625 -4.25 C 3.210938 -4.144531 3.082031 -4.007812 3 -3.84375 C 2.925781 -3.6875 2.875 -3.550781 2.84375 -3.4375 C 2.8125 -3.332031 2.796875 -3.25 2.796875 -3.1875 L 2.796875 0 Z M 0.703125 0 "/></g></g></g><g fill="#fffaf2" fill-opacity="1"><g transform="translate(85.941775, 22.148437)"><g><path d="M 1.28125 -0.71875 C 0.601562 -1.320312 0.265625 -2.085938 0.265625 -3.015625 C 0.265625 -3.953125 0.613281 -4.722656 1.3125 -5.328125 C 2.019531 -5.929688 2.890625 -6.234375 3.921875 -6.234375 C 4.941406 -6.234375 5.796875 -5.929688 6.484375 -5.328125 C 7.179688 -4.722656 7.53125 -3.953125 7.53125 -3.015625 C 7.53125 -2.085938 7.191406 -1.320312 6.515625 -0.71875 C 5.835938 -0.125 4.972656 0.171875 3.921875 0.171875 C 2.835938 0.171875 1.957031 -0.125 1.28125 -0.71875 Z M 2.90625 -4.046875 C 2.632812 -3.785156 2.5 -3.441406 2.5 -3.015625 C 2.5 -2.597656 2.625 -2.257812 2.875 -2 C 3.132812 -1.738281 3.476562 -1.609375 3.90625 -1.609375 C 4.320312 -1.609375 4.660156 -1.738281 4.921875 -2 C 5.179688 -2.269531 5.3125 -2.613281 5.3125 -3.03125 C 5.3125 -3.445312 5.175781 -3.785156 4.90625 -4.046875 C 4.632812 -4.316406 4.300781 -4.453125 3.90625 -4.453125 C 3.507812 -4.453125 3.175781 -4.316406 2.90625 -4.046875 Z M 2.90625 -4.046875 "/></g></g></g><g fill="#fffaf2" fill-opacity="1"><g transform="translate(93.749851, 22.148437)"><g><path d="M 1.109375 -0.75 C 0.546875 -1.363281 0.265625 -2.117188 0.265625 -3.015625 C 0.265625 -3.921875 0.546875 -4.679688 1.109375 -5.296875 C 1.679688 -5.921875 2.40625 -6.234375 3.28125 -6.234375 C 4.082031 -6.234375 4.742188 -5.984375 5.265625 -5.484375 L 5.265625 -10.15625 L 7.359375 -10.15625 L 7.359375 0 L 5.296875 0 L 5.296875 -0.6875 L 5.265625 -0.6875 C 4.742188 -0.113281 4.082031 0.171875 3.28125 0.171875 C 2.40625 0.171875 1.679688 -0.132812 1.109375 -0.75 Z M 2.90625 -4.046875 C 2.632812 -3.785156 2.5 -3.441406 2.5 -3.015625 C 2.5 -2.597656 2.625 -2.257812 2.875 -2 C 3.132812 -1.738281 3.476562 -1.609375 3.90625 -1.609375 C 4.320312 -1.609375 4.660156 -1.738281 4.921875 -2 C 5.179688 -2.269531 5.3125 -2.613281 5.3125 -3.03125 C 5.3125 -3.445312 5.175781 -3.785156 4.90625 -4.046875 C 4.632812 -4.316406 4.300781 -4.453125 3.90625 -4.453125 C 3.507812 -4.453125 3.175781 -4.316406 2.90625 -4.046875 Z M 2.90625 -4.046875 "/></g></g></g><g fill="#fffaf2" fill-opacity="1"><g transform="translate(101.817806, 22.148437)"><g><path d="M 2.6875 -6.0625 L 2.6875 -3.171875 C 2.6875 -2.578125 2.773438 -2.15625 2.953125 -1.90625 C 3.128906 -1.65625 3.4375 -1.53125 3.875 -1.53125 C 4.3125 -1.53125 4.617188 -1.65625 4.796875 -1.90625 C 4.972656 -2.15625 5.0625 -2.578125 5.0625 -3.171875 L 5.0625 -6.0625 L 7.15625 -6.0625 L 7.15625 -2.671875 C 7.15625 -1.660156 6.894531 -0.929688 6.375 -0.484375 C 5.851562 -0.046875 5.019531 0.171875 3.875 0.171875 C 2.726562 0.171875 1.894531 -0.046875 1.375 -0.484375 C 0.851562 -0.929688 0.59375 -1.660156 0.59375 -2.671875 L 0.59375 -6.0625 Z M 2.6875 -6.0625 "/></g></g></g><g fill="#fffaf2" fill-opacity="1"><g transform="translate(109.566819, 22.148437)"><g><path d="M 3.9375 -4.53125 C 3.539062 -4.53125 3.203125 -4.382812 2.921875 -4.09375 C 2.640625 -3.800781 2.5 -3.445312 2.5 -3.03125 C 2.5 -2.613281 2.640625 -2.257812 2.921875 -1.96875 C 3.203125 -1.675781 3.539062 -1.53125 3.9375 -1.53125 C 4.125 -1.53125 4.300781 -1.550781 4.46875 -1.59375 C 4.632812 -1.644531 4.757812 -1.695312 4.84375 -1.75 L 4.953125 -1.8125 L 5.65625 -0.359375 C 5.601562 -0.328125 5.523438 -0.28125 5.421875 -0.21875 C 5.328125 -0.15625 5.101562 -0.078125 4.75 0.015625 C 4.40625 0.117188 4.03125 0.171875 3.625 0.171875 C 2.738281 0.171875 1.957031 -0.140625 1.28125 -0.765625 C 0.601562 -1.390625 0.265625 -2.140625 0.265625 -3.015625 C 0.265625 -3.890625 0.601562 -4.644531 1.28125 -5.28125 C 1.957031 -5.914062 2.738281 -6.234375 3.625 -6.234375 C 4.03125 -6.234375 4.398438 -6.1875 4.734375 -6.09375 C 5.078125 -6 5.316406 -5.90625 5.453125 -5.8125 L 5.65625 -5.671875 L 4.953125 -4.234375 C 4.691406 -4.429688 4.351562 -4.53125 3.9375 -4.53125 Z M 3.9375 -4.53125 "/></g></g></g><g fill="#fffaf2" fill-opacity="1"><g transform="translate(115.366769, 22.148437)"><g><path d="M 1.0625 -6.0625 L 1.0625 -8.3125 L 3.15625 -8.3125 L 3.15625 -6.0625 L 4.421875 -6.0625 L 4.421875 -4.46875 L 3.15625 -4.46875 L 3.15625 -2.546875 C 3.15625 -1.984375 3.3125 -1.703125 3.625 -1.703125 C 3.707031 -1.703125 3.789062 -1.71875 3.875 -1.75 C 3.957031 -1.78125 4.023438 -1.8125 4.078125 -1.84375 L 4.140625 -1.890625 L 4.671875 -0.203125 C 4.222656 0.046875 3.707031 0.171875 3.125 0.171875 C 2.738281 0.171875 2.398438 0.101562 2.109375 -0.03125 C 1.828125 -0.164062 1.613281 -0.347656 1.46875 -0.578125 C 1.320312 -0.816406 1.21875 -1.0625 1.15625 -1.3125 C 1.09375 -1.570312 1.0625 -1.847656 1.0625 -2.140625 L 1.0625 -4.46875 L 0.1875 -4.46875 L 0.1875 -6.0625 Z M 1.0625 -6.0625 "/></g></g></g><g fill="#fffaf2" fill-opacity="1"><g transform="translate(120.032712, 22.148437)"><g/></g></g><g fill="#fffaf2" fill-opacity="1"><g transform="translate(123.257533, 22.148437)"><g><path d="M 6.9375 -5.296875 C 7.507812 -4.679688 7.796875 -3.921875 7.796875 -3.015625 C 7.796875 -2.117188 7.507812 -1.363281 6.9375 -0.75 C 6.375 -0.132812 5.65625 0.171875 4.78125 0.171875 C 3.976562 0.171875 3.316406 -0.113281 2.796875 -0.6875 L 2.78125 -0.6875 L 2.78125 0 L 0.703125 0 L 0.703125 -10.15625 L 2.796875 -10.15625 L 2.796875 -5.484375 C 3.316406 -5.984375 3.976562 -6.234375 4.78125 -6.234375 C 5.65625 -6.234375 6.375 -5.921875 6.9375 -5.296875 Z M 5.1875 -2 C 5.445312 -2.257812 5.578125 -2.597656 5.578125 -3.015625 C 5.578125 -3.441406 5.441406 -3.785156 5.171875 -4.046875 C 4.898438 -4.316406 4.5625 -4.453125 4.15625 -4.453125 C 3.757812 -4.453125 3.425781 -4.316406 3.15625 -4.046875 C 2.882812 -3.785156 2.75 -3.445312 2.75 -3.03125 C 2.75 -2.613281 2.878906 -2.269531 3.140625 -2 C 3.410156 -1.738281 3.75 -1.609375 4.15625 -1.609375 C 4.582031 -1.609375 4.925781 -1.738281 5.1875 -2 Z M 5.1875 -2 "/></g></g></g><g fill="#fffaf2" fill-opacity="1"><g transform="translate(131.325488, 22.148437)"><g><path d="M 5.296875 -6.0625 L 7.71875 -6.0625 L 2.953125 3.078125 L 0.546875 3.078125 L 2.640625 -0.9375 L -0.234375 -6.0625 L 2.171875 -6.0625 L 3.859375 -2.953125 Z M 5.296875 -6.0625 "/></g></g></g><g fill="#fffaf2" fill-opacity="1"><g transform="translate(138.802815, 22.148437)"><g/></g></g><g fill="#fffaf2" fill-opacity="1"><g transform="translate(142.027636, 22.148437)"><g><path d="M 5.65625 -9.75 L 9.59375 0 L 7.203125 0 L 6.484375 -1.953125 L 2.78125 -1.953125 L 2.0625 0 L -0.328125 0 L 3.609375 -9.75 Z M 5.734375 -3.890625 L 4.640625 -6.734375 L 4.625 -6.734375 L 3.53125 -3.890625 Z M 5.734375 -3.890625 "/></g></g></g><g fill="#fffaf2" fill-opacity="1"><g transform="translate(151.288652, 22.148437)"><g><path d="M 4.953125 -9.75 L 4.953125 -2.75 C 4.953125 -1.800781 4.6875 -1.078125 4.15625 -0.578125 C 3.632812 -0.078125 2.882812 0.171875 1.90625 0.171875 C 1.65625 0.171875 1.398438 0.140625 1.140625 0.078125 C 0.890625 0.015625 0.675781 -0.0546875 0.5 -0.140625 C 0.332031 -0.234375 0.175781 -0.328125 0.03125 -0.421875 C -0.101562 -0.515625 -0.203125 -0.59375 -0.265625 -0.65625 L -0.359375 -0.75 L 0.34375 -2.609375 C 0.8125 -2.171875 1.234375 -1.953125 1.609375 -1.953125 C 1.941406 -1.953125 2.210938 -2.0625 2.421875 -2.28125 C 2.628906 -2.507812 2.734375 -2.851562 2.734375 -3.3125 L 2.734375 -9.75 Z M 4.953125 -9.75 "/></g></g></g><g fill="#fffaf2" fill-opacity="1"><g transform="translate(156.828724, 22.148437)"><g><path d="M 5.65625 -9.75 L 9.59375 0 L 7.203125 0 L 6.484375 -1.953125 L 2.78125 -1.953125 L 2.0625 0 L -0.328125 0 L 3.609375 -9.75 Z M 5.734375 -3.890625 L 4.640625 -6.734375 L 4.625 -6.734375 L 3.53125 -3.890625 Z M 5.734375 -3.890625 "/></g></g></g><g fill="#fffaf2" fill-opacity="1"><g transform="translate(166.089739, 22.148437)"><g><path d="M 9.828125 0 L 6.953125 0 L 4.65625 -3.3125 L 2.34375 0 L -0.40625 0 L 3.28125 -5.25 L 0.21875 -9.75 L 2.859375 -9.75 L 4.65625 -7.09375 L 6.453125 -9.75 L 9.21875 -9.75 L 6.03125 -5.25 Z M 9.828125 0 "/></g></g></g><g fill="#ee7340" fill-opacity="1"><g transform="translate(162.091438, 33.628171)"><g><path d="M 7.203125 -6.375 L 7.203125 -5.171875 L 0.921875 -5.171875 L 0.921875 -6.375 Z M 7.203125 -6.375 "/></g></g></g><g fill="#ee7340" fill-opacity="1"><g transform="translate(170.777778, 33.628171)"><g/></g></g></svg>