<svg xmlns="http://www.w3.org/2000/svg" xmlns:xlink="http://www.w3.org/1999/xlink" width="52" zoomAndPan="magnify" viewBox="0 0 39 36.000001" height="48" preserveAspectRatio="xMidYMid meet" version="1.0"><defs><g/><clipPath id="bc6600d949"><path d="M 25 0.203125 L 34.824219 0.203125 L 34.824219 10 L 25 10 Z M 25 0.203125 " clip-rule="nonzero"/></clipPath><clipPath id="dcff7b6619"><path d="M 0.527344 1 L 34 1 L 34 34.5 L 0.527344 34.5 Z M 0.527344 1 " clip-rule="nonzero"/></clipPath></defs><path fill="#4b9775" d="M 9.554688 19.398438 L 23.664062 5.292969 L 29.609375 11.238281 L 15.503906 25.347656 L 8.8125 26.089844 Z M 9.554688 19.398438 " fill-opacity="1" fill-rule="nonzero"/><g clip-path="url(#bc6600d949)"><path fill="#4b9775" d="M 25.464844 3.488281 L 27.894531 1.058594 C 28.09375 0.863281 28.320312 0.710938 28.578125 0.605469 C 28.835938 0.5 29.105469 0.445312 29.382812 0.445312 C 29.660156 0.445312 29.929688 0.5 30.1875 0.605469 C 30.445312 0.710938 30.671875 0.863281 30.871094 1.058594 L 33.84375 4.03125 C 34.039062 4.230469 34.191406 4.457031 34.296875 4.714844 C 34.402344 4.972656 34.457031 5.242188 34.457031 5.519531 C 34.457031 5.796875 34.402344 6.066406 34.296875 6.324219 C 34.191406 6.582031 34.039062 6.808594 33.84375 7.003906 L 31.410156 9.4375 Z M 25.464844 3.488281 " fill-opacity="1" fill-rule="nonzero"/></g><g clip-path="url(#dcff7b6619)"><path fill="#4b9775" d="M 32.03125 18.621094 C 31.871094 18.621094 31.71875 18.652344 31.570312 18.714844 C 31.421875 18.777344 31.289062 18.863281 31.175781 18.976562 C 31.0625 19.089844 30.976562 19.222656 30.914062 19.371094 C 30.851562 19.519531 30.820312 19.671875 30.820312 19.832031 L 30.820312 30.738281 C 30.820312 30.898438 30.789062 31.054688 30.730469 31.203125 C 30.667969 31.351562 30.578125 31.484375 30.464844 31.597656 C 30.351562 31.710938 30.222656 31.796875 30.074219 31.859375 C 29.925781 31.921875 29.769531 31.953125 29.609375 31.953125 L 4.164062 31.953125 C 4 31.953125 3.847656 31.921875 3.699219 31.859375 C 3.550781 31.796875 3.417969 31.710938 3.304688 31.597656 C 3.191406 31.484375 3.105469 31.351562 3.042969 31.203125 C 2.980469 31.054688 2.949219 30.898438 2.949219 30.738281 L 2.949219 5.292969 C 2.949219 5.132812 2.980469 4.976562 3.042969 4.828125 C 3.105469 4.679688 3.191406 4.550781 3.304688 4.433594 C 3.417969 4.320312 3.550781 4.234375 3.699219 4.171875 C 3.847656 4.113281 4 4.082031 4.164062 4.082031 L 15.066406 4.082031 C 15.230469 4.082031 15.382812 4.050781 15.53125 3.988281 C 15.679688 3.925781 15.8125 3.839844 15.925781 3.726562 C 16.039062 3.613281 16.125 3.480469 16.1875 3.332031 C 16.25 3.183594 16.28125 3.03125 16.28125 2.867188 C 16.28125 2.707031 16.25 2.554688 16.1875 2.40625 C 16.125 2.257812 16.039062 2.125 15.925781 2.011719 C 15.8125 1.898438 15.679688 1.8125 15.53125 1.75 C 15.382812 1.6875 15.230469 1.65625 15.066406 1.65625 L 4.164062 1.65625 C 3.679688 1.65625 3.214844 1.75 2.769531 1.933594 C 2.324219 2.117188 1.933594 2.382812 1.589844 2.722656 C 1.25 3.0625 0.988281 3.457031 0.804688 3.902344 C 0.621094 4.347656 0.527344 4.808594 0.527344 5.292969 L 0.527344 30.738281 C 0.527344 31.222656 0.621094 31.683594 0.804688 32.128906 C 0.988281 32.574219 1.25 32.96875 1.589844 33.308594 C 1.933594 33.652344 2.324219 33.914062 2.769531 34.097656 C 3.214844 34.28125 3.679688 34.375 4.164062 34.375 L 29.609375 34.375 C 30.089844 34.375 30.554688 34.28125 31 34.097656 C 31.445312 33.914062 31.839844 33.652344 32.179688 33.308594 C 32.519531 32.96875 32.785156 32.574219 32.96875 32.128906 C 33.152344 31.683594 33.246094 31.222656 33.246094 30.738281 L 33.246094 19.832031 C 33.246094 19.671875 33.214844 19.519531 33.152344 19.371094 C 33.089844 19.222656 33.003906 19.089844 32.890625 18.976562 C 32.777344 18.863281 32.644531 18.777344 32.496094 18.714844 C 32.347656 18.652344 32.195312 18.621094 32.03125 18.621094 Z M 32.03125 18.621094 " fill-opacity="1" fill-rule="nonzero"/></g><g fill="#409065" fill-opacity="1"><g transform="translate(16.757573, 22.033937)"><g><path d="M 7.109375 -6.296875 L 7.109375 -5.109375 L 0.90625 -5.109375 L 0.90625 -6.296875 Z M 7.109375 -6.296875 "/></g></g></g><g fill="#409065" fill-opacity="1"><g transform="translate(25.343299, 22.033937)"><g/></g></g></svg>