<svg xmlns="http://www.w3.org/2000/svg" xmlns:xlink="http://www.w3.org/1999/xlink" width="471" zoomAndPan="magnify" viewBox="0 0 353.25 56.249996" height="75" preserveAspectRatio="xMidYMid meet" version="1.0"><defs><g/><clipPath id="1d6cbcf9ca"><path d="M 1.953125 1.84375 L 349.855469 1.84375 L 349.855469 46.714844 L 1.953125 46.714844 Z M 1.953125 1.84375 " clip-rule="nonzero"/></clipPath><clipPath id="f36a8cca87"><path d="M 24.390625 1.84375 L 327.421875 1.84375 C 333.371094 1.84375 339.078125 4.207031 343.285156 8.414062 C 347.492188 12.621094 349.855469 18.328125 349.855469 24.277344 C 349.855469 30.230469 347.492188 35.9375 343.285156 40.144531 C 339.078125 44.351562 333.371094 46.714844 327.421875 46.714844 L 24.390625 46.714844 C 18.441406 46.714844 12.734375 44.351562 8.523438 40.144531 C 4.316406 35.9375 1.953125 30.230469 1.953125 24.277344 C 1.953125 18.328125 4.316406 12.621094 8.523438 8.414062 C 12.734375 4.207031 18.441406 1.84375 24.390625 1.84375 Z M 24.390625 1.84375 " clip-rule="nonzero"/></clipPath><linearGradient x1="0.00775146" gradientTransform="matrix(0.175281, 0, 0, 0.175281, 1.9526, 1.842865)" y1="128" x2="1984.827993" gradientUnits="userSpaceOnUse" y2="128" id="b66fca4eba"><stop stop-opacity="1" stop-color="rgb(22.399902%, 54.499817%, 43.099976%)" offset="0"/><stop stop-opacity="1" stop-color="rgb(22.47467%, 54.64325%, 43.22052%)" offset="0.0078125"/><stop stop-opacity="1" stop-color="rgb(22.624207%, 54.931641%, 43.461609%)" offset="0.015625"/><stop stop-opacity="1" stop-color="rgb(22.773743%, 55.220032%, 43.704224%)" offset="0.0234375"/><stop stop-opacity="1" stop-color="rgb(22.924805%, 55.506897%, 43.946838%)" offset="0.03125"/><stop stop-opacity="1" stop-color="rgb(23.074341%, 55.795288%, 44.187927%)" offset="0.0390625"/><stop stop-opacity="1" stop-color="rgb(23.223877%, 56.083679%, 44.430542%)" offset="0.046875"/><stop stop-opacity="1" stop-color="rgb(23.373413%, 56.37207%, 44.673157%)" offset="0.0546875"/><stop stop-opacity="1" stop-color="rgb(23.524475%, 56.660461%, 44.915771%)" offset="0.0625"/><stop stop-opacity="1" stop-color="rgb(23.674011%, 56.948853%, 45.15686%)" offset="0.0703125"/><stop stop-opacity="1" stop-color="rgb(23.823547%, 57.237244%, 45.399475%)" offset="0.078125"/><stop stop-opacity="1" stop-color="rgb(23.974609%, 57.525635%, 45.64209%)" offset="0.0859375"/><stop stop-opacity="1" stop-color="rgb(24.124146%, 57.814026%, 45.884705%)" offset="0.09375"/><stop stop-opacity="1" stop-color="rgb(24.273682%, 58.102417%, 46.125793%)" offset="0.101563"/><stop stop-opacity="1" stop-color="rgb(24.424744%, 58.390808%, 46.368408%)" offset="0.109375"/><stop stop-opacity="1" stop-color="rgb(24.57428%, 58.679199%, 46.611023%)" offset="0.117188"/><stop stop-opacity="1" stop-color="rgb(24.723816%, 58.96759%, 46.852112%)" offset="0.125"/><stop stop-opacity="1" stop-color="rgb(24.873352%, 59.255981%, 47.094727%)" offset="0.132813"/><stop stop-opacity="1" stop-color="rgb(25.024414%, 59.542847%, 47.337341%)" offset="0.140625"/><stop stop-opacity="1" stop-color="rgb(25.17395%, 59.831238%, 47.579956%)" offset="0.148438"/><stop stop-opacity="1" stop-color="rgb(25.323486%, 60.119629%, 47.821045%)" offset="0.15625"/><stop stop-opacity="1" stop-color="rgb(25.474548%, 60.40802%, 48.06366%)" offset="0.164062"/><stop stop-opacity="1" stop-color="rgb(25.624084%, 60.696411%, 48.306274%)" offset="0.171875"/><stop stop-opacity="1" stop-color="rgb(25.773621%, 60.984802%, 48.547363%)" offset="0.179688"/><stop stop-opacity="1" stop-color="rgb(25.924683%, 61.273193%, 48.789978%)" offset="0.1875"/><stop stop-opacity="1" stop-color="rgb(26.074219%, 61.561584%, 49.032593%)" offset="0.195312"/><stop stop-opacity="1" stop-color="rgb(26.223755%, 61.849976%, 49.275208%)" offset="0.203125"/><stop stop-opacity="1" stop-color="rgb(26.374817%, 62.138367%, 49.516296%)" offset="0.210938"/><stop stop-opacity="1" stop-color="rgb(26.524353%, 62.426758%, 49.758911%)" offset="0.21875"/><stop stop-opacity="1" stop-color="rgb(26.673889%, 62.715149%, 50.001526%)" offset="0.226562"/><stop stop-opacity="1" stop-color="rgb(26.823425%, 63.00354%, 50.242615%)" offset="0.234375"/><stop stop-opacity="1" stop-color="rgb(26.974487%, 63.291931%, 50.485229%)" offset="0.242188"/><stop stop-opacity="1" stop-color="rgb(27.124023%, 63.578796%, 50.727844%)" offset="0.25"/><stop stop-opacity="1" stop-color="rgb(27.27356%, 63.867188%, 50.970459%)" offset="0.257812"/><stop stop-opacity="1" stop-color="rgb(27.424622%, 64.155579%, 51.211548%)" offset="0.265625"/><stop stop-opacity="1" stop-color="rgb(27.574158%, 64.44397%, 51.454163%)" offset="0.273438"/><stop stop-opacity="1" stop-color="rgb(27.723694%, 64.732361%, 51.696777%)" offset="0.28125"/><stop stop-opacity="1" stop-color="rgb(27.874756%, 65.020752%, 51.937866%)" offset="0.289062"/><stop stop-opacity="1" stop-color="rgb(28.024292%, 65.309143%, 52.180481%)" offset="0.296875"/><stop stop-opacity="1" stop-color="rgb(28.173828%, 65.597534%, 52.423096%)" offset="0.304687"/><stop stop-opacity="1" stop-color="rgb(28.323364%, 65.885925%, 52.66571%)" offset="0.3125"/><stop stop-opacity="1" stop-color="rgb(28.474426%, 66.174316%, 52.906799%)" offset="0.320312"/><stop stop-opacity="1" stop-color="rgb(28.623962%, 66.462708%, 53.149414%)" offset="0.328125"/><stop stop-opacity="1" stop-color="rgb(28.773499%, 66.751099%, 53.392029%)" offset="0.335937"/><stop stop-opacity="1" stop-color="rgb(28.924561%, 67.03949%, 53.634644%)" offset="0.34375"/><stop stop-opacity="1" stop-color="rgb(29.074097%, 67.327881%, 53.875732%)" offset="0.351562"/><stop stop-opacity="1" stop-color="rgb(29.223633%, 67.614746%, 54.118347%)" offset="0.359375"/><stop stop-opacity="1" stop-color="rgb(29.374695%, 67.903137%, 54.360962%)" offset="0.367187"/><stop stop-opacity="1" stop-color="rgb(29.524231%, 68.191528%, 54.602051%)" offset="0.375"/><stop stop-opacity="1" stop-color="rgb(29.673767%, 68.479919%, 54.844666%)" offset="0.382812"/><stop stop-opacity="1" stop-color="rgb(29.823303%, 68.768311%, 55.08728%)" offset="0.390625"/><stop stop-opacity="1" stop-color="rgb(29.974365%, 69.056702%, 55.329895%)" offset="0.398437"/><stop stop-opacity="1" stop-color="rgb(30.123901%, 69.345093%, 55.570984%)" offset="0.40625"/><stop stop-opacity="1" stop-color="rgb(30.273438%, 69.633484%, 55.813599%)" offset="0.414062"/><stop stop-opacity="1" stop-color="rgb(30.4245%, 69.921875%, 56.056213%)" offset="0.421875"/><stop stop-opacity="1" stop-color="rgb(30.574036%, 70.210266%, 56.297302%)" offset="0.429687"/><stop stop-opacity="1" stop-color="rgb(30.723572%, 70.498657%, 56.539917%)" offset="0.4375"/><stop stop-opacity="1" stop-color="rgb(30.874634%, 70.787048%, 56.782532%)" offset="0.445312"/><stop stop-opacity="1" stop-color="rgb(31.02417%, 71.075439%, 57.025146%)" offset="0.453125"/><stop stop-opacity="1" stop-color="rgb(31.173706%, 71.362305%, 57.266235%)" offset="0.460937"/><stop stop-opacity="1" stop-color="rgb(31.324768%, 71.650696%, 57.50885%)" offset="0.46875"/><stop stop-opacity="1" stop-color="rgb(31.474304%, 71.939087%, 57.751465%)" offset="0.476562"/><stop stop-opacity="1" stop-color="rgb(31.62384%, 72.227478%, 57.992554%)" offset="0.484375"/><stop stop-opacity="1" stop-color="rgb(31.773376%, 72.515869%, 58.235168%)" offset="0.492187"/><stop stop-opacity="1" stop-color="rgb(31.924438%, 72.80426%, 58.477783%)" offset="0.5"/><stop stop-opacity="1" stop-color="rgb(32.073975%, 73.092651%, 58.720398%)" offset="0.507812"/><stop stop-opacity="1" stop-color="rgb(32.223511%, 73.381042%, 58.961487%)" offset="0.515625"/><stop stop-opacity="1" stop-color="rgb(32.374573%, 73.669434%, 59.204102%)" offset="0.523437"/><stop stop-opacity="1" stop-color="rgb(32.524109%, 73.957825%, 59.446716%)" offset="0.53125"/><stop stop-opacity="1" stop-color="rgb(32.673645%, 74.246216%, 59.689331%)" offset="0.539062"/><stop stop-opacity="1" stop-color="rgb(32.824707%, 74.534607%, 59.93042%)" offset="0.546875"/><stop stop-opacity="1" stop-color="rgb(32.974243%, 74.822998%, 60.173035%)" offset="0.554688"/><stop stop-opacity="1" stop-color="rgb(33.123779%, 75.111389%, 60.415649%)" offset="0.5625"/><stop stop-opacity="1" stop-color="rgb(33.273315%, 75.398254%, 60.656738%)" offset="0.570312"/><stop stop-opacity="1" stop-color="rgb(33.424377%, 75.686646%, 60.899353%)" offset="0.578125"/><stop stop-opacity="1" stop-color="rgb(33.573914%, 75.975037%, 61.141968%)" offset="0.585938"/><stop stop-opacity="1" stop-color="rgb(33.72345%, 76.263428%, 61.384583%)" offset="0.59375"/><stop stop-opacity="1" stop-color="rgb(33.874512%, 76.551819%, 61.625671%)" offset="0.601562"/><stop stop-opacity="1" stop-color="rgb(34.024048%, 76.84021%, 61.868286%)" offset="0.609375"/><stop stop-opacity="1" stop-color="rgb(34.173584%, 77.128601%, 62.110901%)" offset="0.617187"/><stop stop-opacity="1" stop-color="rgb(34.324646%, 77.416992%, 62.35199%)" offset="0.625"/><stop stop-opacity="1" stop-color="rgb(34.474182%, 77.705383%, 62.594604%)" offset="0.632812"/><stop stop-opacity="1" stop-color="rgb(34.623718%, 77.993774%, 62.837219%)" offset="0.640625"/><stop stop-opacity="1" stop-color="rgb(34.77478%, 78.282166%, 63.079834%)" offset="0.648437"/><stop stop-opacity="1" stop-color="rgb(34.924316%, 78.570557%, 63.320923%)" offset="0.65625"/><stop stop-opacity="1" stop-color="rgb(35.073853%, 78.858948%, 63.563538%)" offset="0.664062"/><stop stop-opacity="1" stop-color="rgb(35.223389%, 79.147339%, 63.806152%)" offset="0.671875"/><stop stop-opacity="1" stop-color="rgb(35.374451%, 79.434204%, 64.047241%)" offset="0.679688"/><stop stop-opacity="1" stop-color="rgb(35.523987%, 79.722595%, 64.289856%)" offset="0.6875"/><stop stop-opacity="1" stop-color="rgb(35.673523%, 80.010986%, 64.532471%)" offset="0.695312"/><stop stop-opacity="1" stop-color="rgb(35.824585%, 80.299377%, 64.775085%)" offset="0.703125"/><stop stop-opacity="1" stop-color="rgb(35.974121%, 80.587769%, 65.016174%)" offset="0.710938"/><stop stop-opacity="1" stop-color="rgb(36.123657%, 80.87616%, 65.258789%)" offset="0.71875"/><stop stop-opacity="1" stop-color="rgb(36.274719%, 81.164551%, 65.501404%)" offset="0.726563"/><stop stop-opacity="1" stop-color="rgb(36.424255%, 81.452942%, 65.742493%)" offset="0.734375"/><stop stop-opacity="1" stop-color="rgb(36.573792%, 81.741333%, 65.985107%)" offset="0.742187"/><stop stop-opacity="1" stop-color="rgb(36.723328%, 82.029724%, 66.227722%)" offset="0.75"/><stop stop-opacity="1" stop-color="rgb(36.87439%, 82.318115%, 66.470337%)" offset="0.757812"/><stop stop-opacity="1" stop-color="rgb(37.023926%, 82.606506%, 66.711426%)" offset="0.765625"/><stop stop-opacity="1" stop-color="rgb(37.173462%, 82.894897%, 66.954041%)" offset="0.773437"/><stop stop-opacity="1" stop-color="rgb(37.324524%, 83.183289%, 67.196655%)" offset="0.78125"/><stop stop-opacity="1" stop-color="rgb(37.47406%, 83.470154%, 67.43927%)" offset="0.789062"/><stop stop-opacity="1" stop-color="rgb(37.623596%, 83.758545%, 67.680359%)" offset="0.796875"/><stop stop-opacity="1" stop-color="rgb(37.774658%, 84.046936%, 67.922974%)" offset="0.804688"/><stop stop-opacity="1" stop-color="rgb(37.924194%, 84.335327%, 68.165588%)" offset="0.8125"/><stop stop-opacity="1" stop-color="rgb(38.07373%, 84.623718%, 68.406677%)" offset="0.820312"/><stop stop-opacity="1" stop-color="rgb(38.223267%, 84.912109%, 68.649292%)" offset="0.828125"/><stop stop-opacity="1" stop-color="rgb(38.374329%, 85.2005%, 68.891907%)" offset="0.835938"/><stop stop-opacity="1" stop-color="rgb(38.523865%, 85.488892%, 69.134521%)" offset="0.84375"/><stop stop-opacity="1" stop-color="rgb(38.673401%, 85.777283%, 69.37561%)" offset="0.851563"/><stop stop-opacity="1" stop-color="rgb(38.824463%, 86.065674%, 69.618225%)" offset="0.859375"/><stop stop-opacity="1" stop-color="rgb(38.973999%, 86.354065%, 69.86084%)" offset="0.867187"/><stop stop-opacity="1" stop-color="rgb(39.123535%, 86.642456%, 70.101929%)" offset="0.875"/><stop stop-opacity="1" stop-color="rgb(39.274597%, 86.930847%, 70.344543%)" offset="0.882812"/><stop stop-opacity="1" stop-color="rgb(39.424133%, 87.217712%, 70.587158%)" offset="0.890625"/><stop stop-opacity="1" stop-color="rgb(39.573669%, 87.506104%, 70.829773%)" offset="0.898437"/><stop stop-opacity="1" stop-color="rgb(39.724731%, 87.794495%, 71.070862%)" offset="0.90625"/><stop stop-opacity="1" stop-color="rgb(39.874268%, 88.082886%, 71.313477%)" offset="0.914062"/><stop stop-opacity="1" stop-color="rgb(40.023804%, 88.371277%, 71.556091%)" offset="0.921875"/><stop stop-opacity="1" stop-color="rgb(40.17334%, 88.659668%, 71.79718%)" offset="0.929688"/><stop stop-opacity="1" stop-color="rgb(40.324402%, 88.948059%, 72.039795%)" offset="0.9375"/><stop stop-opacity="1" stop-color="rgb(40.473938%, 89.23645%, 72.28241%)" offset="0.945312"/><stop stop-opacity="1" stop-color="rgb(40.623474%, 89.524841%, 72.525024%)" offset="0.953125"/><stop stop-opacity="1" stop-color="rgb(40.774536%, 89.813232%, 72.766113%)" offset="0.960938"/><stop stop-opacity="1" stop-color="rgb(40.924072%, 90.101624%, 73.008728%)" offset="0.96875"/><stop stop-opacity="1" stop-color="rgb(41.073608%, 90.390015%, 73.251343%)" offset="0.976563"/><stop stop-opacity="1" stop-color="rgb(41.22467%, 90.678406%, 73.493958%)" offset="0.984375"/><stop stop-opacity="1" stop-color="rgb(41.374207%, 90.966797%, 73.735046%)" offset="0.992188"/><stop stop-opacity="1" stop-color="rgb(41.523743%, 91.253662%, 73.977661%)" offset="1"/></linearGradient></defs><g clip-path="url(#1d6cbcf9ca)"><g clip-path="url(#f36a8cca87)"><path fill="url(#b66fca4eba)" d="M 1.953125 1.84375 L 1.953125 46.714844 L 349.855469 46.714844 L 349.855469 1.84375 Z M 1.953125 1.84375 " fill-rule="nonzero"/></g></g><g fill="#ffffff" fill-opacity="1"><g transform="translate(19.562143, 30.873873)"><g><path d="M 2.265625 -12.9375 L 2.265625 -15.703125 C 2.285156 -17.628906 2.738281 -19.171875 3.625 -20.328125 C 4.519531 -21.492188 5.757812 -22.078125 7.34375 -22.078125 C 8.019531 -22.078125 8.660156 -21.976562 9.265625 -21.78125 C 9.878906 -21.59375 10.320312 -21.398438 10.59375 -21.203125 L 11.03125 -20.921875 L 9.46875 -17.765625 C 9.0625 -18.003906 8.613281 -18.125 8.125 -18.125 C 7.570312 -18.125 7.203125 -17.929688 7.015625 -17.546875 C 6.828125 -17.171875 6.734375 -16.507812 6.734375 -15.5625 L 6.734375 -12.9375 L 9.71875 -12.9375 L 9.71875 -9.53125 L 6.734375 -9.53125 L 6.734375 0 L 2.265625 0 L 2.265625 -9.53125 L 0.40625 -9.53125 L 0.40625 -12.9375 Z M 2.265625 -12.9375 "/></g></g></g><g fill="#ffffff" fill-opacity="1"><g transform="translate(29.024547, 30.873873)"><g><path d="M 5.734375 -12.9375 L 5.734375 -6.78125 C 5.734375 -5.507812 5.925781 -4.601562 6.3125 -4.0625 C 6.695312 -3.519531 7.351562 -3.25 8.28125 -3.25 C 9.207031 -3.25 9.863281 -3.519531 10.25 -4.0625 C 10.632812 -4.601562 10.828125 -5.507812 10.828125 -6.78125 L 10.828125 -12.9375 L 15.296875 -12.9375 L 15.296875 -5.703125 C 15.296875 -3.546875 14.734375 -1.992188 13.609375 -1.046875 C 12.492188 -0.0976562 10.71875 0.375 8.28125 0.375 C 5.84375 0.375 4.0625 -0.0976562 2.9375 -1.046875 C 1.820312 -1.992188 1.265625 -3.546875 1.265625 -5.703125 L 1.265625 -12.9375 Z M 5.734375 -12.9375 "/></g></g></g><g fill="#ffffff" fill-opacity="1"><g transform="translate(45.577441, 30.873873)"><g><path d="M 5.734375 -12.9375 L 5.734375 -6.78125 C 5.734375 -5.507812 5.925781 -4.601562 6.3125 -4.0625 C 6.695312 -3.519531 7.351562 -3.25 8.28125 -3.25 C 9.207031 -3.25 9.863281 -3.519531 10.25 -4.0625 C 10.632812 -4.601562 10.828125 -5.507812 10.828125 -6.78125 L 10.828125 -12.9375 L 15.296875 -12.9375 L 15.296875 -5.703125 C 15.296875 -3.546875 14.734375 -1.992188 13.609375 -1.046875 C 12.492188 -0.0976562 10.71875 0.375 8.28125 0.375 C 5.84375 0.375 4.0625 -0.0976562 2.9375 -1.046875 C 1.820312 -1.992188 1.265625 -3.546875 1.265625 -5.703125 L 1.265625 -12.9375 Z M 5.734375 -12.9375 "/></g></g></g><g fill="#ffffff" fill-opacity="1"><g transform="translate(62.130334, 30.873873)"><g><path d="M 2.390625 -1.59375 C 1.179688 -2.914062 0.578125 -4.535156 0.578125 -6.453125 C 0.578125 -8.378906 1.179688 -10.003906 2.390625 -11.328125 C 3.609375 -12.660156 5.148438 -13.328125 7.015625 -13.328125 C 8.734375 -13.328125 10.144531 -12.785156 11.25 -11.703125 L 11.25 -21.703125 L 15.71875 -21.703125 L 15.71875 0 L 11.3125 0 L 11.3125 -1.46875 L 11.25 -1.46875 C 10.144531 -0.238281 8.734375 0.375 7.015625 0.375 C 5.148438 0.375 3.609375 -0.28125 2.390625 -1.59375 Z M 6.1875 -8.65625 C 5.613281 -8.082031 5.328125 -7.347656 5.328125 -6.453125 C 5.328125 -5.566406 5.601562 -4.84375 6.15625 -4.28125 C 6.707031 -3.71875 7.441406 -3.4375 8.359375 -3.4375 C 9.234375 -3.4375 9.953125 -3.71875 10.515625 -4.28125 C 11.078125 -4.851562 11.359375 -5.578125 11.359375 -6.453125 C 11.359375 -7.347656 11.066406 -8.082031 10.484375 -8.65625 C 9.898438 -9.226562 9.191406 -9.515625 8.359375 -9.515625 C 7.492188 -9.515625 6.769531 -9.226562 6.1875 -8.65625 Z M 6.1875 -8.65625 "/></g></g></g><g fill="#ffffff" fill-opacity="1"><g transform="translate(79.364524, 30.873873)"><g><path d="M 1.9375 -20.15625 C 2.457031 -20.675781 3.078125 -20.9375 3.796875 -20.9375 C 4.523438 -20.9375 5.148438 -20.675781 5.671875 -20.15625 C 6.191406 -19.632812 6.453125 -19.007812 6.453125 -18.28125 C 6.453125 -17.5625 6.191406 -16.941406 5.671875 -16.421875 C 5.148438 -15.898438 4.523438 -15.640625 3.796875 -15.640625 C 3.078125 -15.640625 2.457031 -15.898438 1.9375 -16.421875 C 1.414062 -16.941406 1.15625 -17.5625 1.15625 -18.28125 C 1.15625 -19.007812 1.414062 -19.632812 1.9375 -20.15625 Z M 1.515625 -12.9375 L 1.515625 0 L 5.984375 0 L 5.984375 -12.9375 Z M 1.515625 -12.9375 "/></g></g></g><g fill="#ffffff" fill-opacity="1"><g transform="translate(86.984916, 30.873873)"><g><path d="M 5.734375 -12.9375 L 5.734375 -6.78125 C 5.734375 -5.507812 5.925781 -4.601562 6.3125 -4.0625 C 6.695312 -3.519531 7.351562 -3.25 8.28125 -3.25 C 9.207031 -3.25 9.863281 -3.519531 10.25 -4.0625 C 10.632812 -4.601562 10.828125 -5.507812 10.828125 -6.78125 L 10.828125 -12.9375 L 15.296875 -12.9375 L 15.296875 -5.703125 C 15.296875 -3.546875 14.734375 -1.992188 13.609375 -1.046875 C 12.492188 -0.0976562 10.71875 0.375 8.28125 0.375 C 5.84375 0.375 4.0625 -0.0976562 2.9375 -1.046875 C 1.820312 -1.992188 1.265625 -3.546875 1.265625 -5.703125 L 1.265625 -12.9375 Z M 5.734375 -12.9375 "/></g></g></g><g fill="#ffffff" fill-opacity="1"><g transform="translate(103.53781, 30.873873)"><g><path d="M 1.9375 -20.15625 C 2.457031 -20.675781 3.078125 -20.9375 3.796875 -20.9375 C 4.523438 -20.9375 5.148438 -20.675781 5.671875 -20.15625 C 6.191406 -19.632812 6.453125 -19.007812 6.453125 -18.28125 C 6.453125 -17.5625 6.191406 -16.941406 5.671875 -16.421875 C 5.148438 -15.898438 4.523438 -15.640625 3.796875 -15.640625 C 3.078125 -15.640625 2.457031 -15.898438 1.9375 -16.421875 C 1.414062 -16.941406 1.15625 -17.5625 1.15625 -18.28125 C 1.15625 -19.007812 1.414062 -19.632812 1.9375 -20.15625 Z M 1.515625 -12.9375 L 1.515625 0 L 5.984375 0 L 5.984375 -12.9375 Z M 1.515625 -12.9375 "/></g></g></g><g fill="#40997a" fill-opacity="1"><g transform="translate(52.449723, 42.372732)"><g><path d="M 7.21875 -6.390625 L 7.21875 -5.171875 L 0.921875 -5.171875 L 0.921875 -6.390625 Z M 7.21875 -6.390625 "/></g></g></g><g fill="#40997a" fill-opacity="1"><g transform="translate(61.157833, 42.372732)"><g/></g></g></svg>