<svg xmlns="http://www.w3.org/2000/svg" xmlns:xlink="http://www.w3.org/1999/xlink" width="188" zoomAndPan="magnify" viewBox="0 0 141 50.249999" height="67" preserveAspectRatio="xMidYMid meet" version="1.0"><defs><g/><clipPath id="46062bb391"><path d="M 1.035156 0 L 139.214844 0 L 139.214844 37.996094 L 1.035156 37.996094 Z M 1.035156 0 " clip-rule="nonzero"/></clipPath><clipPath id="f8d4b6dcdf"><path d="M 20.035156 0 L 120.289062 0 C 125.328125 0 130.160156 2 133.722656 5.5625 C 137.285156 9.125 139.285156 13.960938 139.285156 18.996094 C 139.285156 24.035156 137.285156 28.867188 133.722656 32.429688 C 130.160156 35.992188 125.328125 37.996094 120.289062 37.996094 L 20.035156 37.996094 C 14.996094 37.996094 10.164062 35.992188 6.601562 32.429688 C 3.039062 28.867188 1.035156 24.035156 1.035156 18.996094 C 1.035156 13.960938 3.039062 9.125 6.601562 5.5625 C 10.164062 2 14.996094 0 20.035156 0 Z M 20.035156 0 " clip-rule="nonzero"/></clipPath><linearGradient x1="0.00180054" gradientTransform="matrix(0.148417, 0, 0, 0.148417, 1.036499, 0)" y1="128" x2="931.00186" gradientUnits="userSpaceOnUse" y2="128" id="b737705e2e"><stop stop-opacity="1" stop-color="rgb(96.499634%, 68.598938%, 22.399902%)" offset="0"/><stop stop-opacity="1" stop-color="rgb(96.482849%, 68.490601%, 22.410583%)" offset="0.0078125"/><stop stop-opacity="1" stop-color="rgb(96.452332%, 68.273926%, 22.434998%)" offset="0.015625"/><stop stop-opacity="1" stop-color="rgb(96.420288%, 68.055725%, 22.459412%)" offset="0.0234375"/><stop stop-opacity="1" stop-color="rgb(96.389771%, 67.83905%, 22.483826%)" offset="0.03125"/><stop stop-opacity="1" stop-color="rgb(96.357727%, 67.622375%, 22.50824%)" offset="0.0390625"/><stop stop-opacity="1" stop-color="rgb(96.327209%, 67.405701%, 22.532654%)" offset="0.046875"/><stop stop-opacity="1" stop-color="rgb(96.295166%, 67.1875%, 22.557068%)" offset="0.0546875"/><stop stop-opacity="1" stop-color="rgb(96.264648%, 66.970825%, 22.579956%)" offset="0.0625"/><stop stop-opacity="1" stop-color="rgb(96.234131%, 66.75415%, 22.60437%)" offset="0.0703125"/><stop stop-opacity="1" stop-color="rgb(96.202087%, 66.537476%, 22.628784%)" offset="0.078125"/><stop stop-opacity="1" stop-color="rgb(96.17157%, 66.319275%, 22.653198%)" offset="0.0859375"/><stop stop-opacity="1" stop-color="rgb(96.139526%, 66.1026%, 22.677612%)" offset="0.09375"/><stop stop-opacity="1" stop-color="rgb(96.109009%, 65.885925%, 22.702026%)" offset="0.101562"/><stop stop-opacity="1" stop-color="rgb(96.076965%, 65.66925%, 22.72644%)" offset="0.109375"/><stop stop-opacity="1" stop-color="rgb(96.046448%, 65.45105%, 22.750854%)" offset="0.117188"/><stop stop-opacity="1" stop-color="rgb(96.014404%, 65.234375%, 22.773743%)" offset="0.125"/><stop stop-opacity="1" stop-color="rgb(95.983887%, 65.0177%, 22.798157%)" offset="0.132812"/><stop stop-opacity="1" stop-color="rgb(95.951843%, 64.7995%, 22.822571%)" offset="0.140625"/><stop stop-opacity="1" stop-color="rgb(95.921326%, 64.582825%, 22.846985%)" offset="0.148438"/><stop stop-opacity="1" stop-color="rgb(95.889282%, 64.36615%, 22.871399%)" offset="0.15625"/><stop stop-opacity="1" stop-color="rgb(95.858765%, 64.149475%, 22.895813%)" offset="0.164062"/><stop stop-opacity="1" stop-color="rgb(95.826721%, 63.931274%, 22.920227%)" offset="0.171875"/><stop stop-opacity="1" stop-color="rgb(95.796204%, 63.7146%, 22.943115%)" offset="0.179688"/><stop stop-opacity="1" stop-color="rgb(95.76416%, 63.497925%, 22.967529%)" offset="0.1875"/><stop stop-opacity="1" stop-color="rgb(95.733643%, 63.28125%, 22.991943%)" offset="0.195312"/><stop stop-opacity="1" stop-color="rgb(95.703125%, 63.063049%, 23.016357%)" offset="0.203125"/><stop stop-opacity="1" stop-color="rgb(95.671082%, 62.846375%, 23.040771%)" offset="0.210938"/><stop stop-opacity="1" stop-color="rgb(95.640564%, 62.6297%, 23.065186%)" offset="0.21875"/><stop stop-opacity="1" stop-color="rgb(95.608521%, 62.413025%, 23.0896%)" offset="0.226562"/><stop stop-opacity="1" stop-color="rgb(95.578003%, 62.194824%, 23.112488%)" offset="0.234375"/><stop stop-opacity="1" stop-color="rgb(95.545959%, 61.978149%, 23.136902%)" offset="0.242188"/><stop stop-opacity="1" stop-color="rgb(95.515442%, 61.761475%, 23.161316%)" offset="0.25"/><stop stop-opacity="1" stop-color="rgb(95.483398%, 61.5448%, 23.18573%)" offset="0.257812"/><stop stop-opacity="1" stop-color="rgb(95.452881%, 61.326599%, 23.210144%)" offset="0.265625"/><stop stop-opacity="1" stop-color="rgb(95.420837%, 61.109924%, 23.234558%)" offset="0.273438"/><stop stop-opacity="1" stop-color="rgb(95.39032%, 60.89325%, 23.258972%)" offset="0.28125"/><stop stop-opacity="1" stop-color="rgb(95.358276%, 60.675049%, 23.283386%)" offset="0.289062"/><stop stop-opacity="1" stop-color="rgb(95.327759%, 60.458374%, 23.306274%)" offset="0.296875"/><stop stop-opacity="1" stop-color="rgb(95.295715%, 60.241699%, 23.330688%)" offset="0.304688"/><stop stop-opacity="1" stop-color="rgb(95.265198%, 60.025024%, 23.355103%)" offset="0.3125"/><stop stop-opacity="1" stop-color="rgb(95.233154%, 59.806824%, 23.379517%)" offset="0.320312"/><stop stop-opacity="1" stop-color="rgb(95.202637%, 59.590149%, 23.403931%)" offset="0.328125"/><stop stop-opacity="1" stop-color="rgb(95.172119%, 59.373474%, 23.428345%)" offset="0.335937"/><stop stop-opacity="1" stop-color="rgb(95.140076%, 59.156799%, 23.452759%)" offset="0.34375"/><stop stop-opacity="1" stop-color="rgb(95.109558%, 58.938599%, 23.475647%)" offset="0.351562"/><stop stop-opacity="1" stop-color="rgb(95.077515%, 58.721924%, 23.500061%)" offset="0.359375"/><stop stop-opacity="1" stop-color="rgb(95.046997%, 58.505249%, 23.524475%)" offset="0.367187"/><stop stop-opacity="1" stop-color="rgb(95.014954%, 58.288574%, 23.548889%)" offset="0.375"/><stop stop-opacity="1" stop-color="rgb(94.984436%, 58.070374%, 23.573303%)" offset="0.382812"/><stop stop-opacity="1" stop-color="rgb(94.952393%, 57.853699%, 23.597717%)" offset="0.390625"/><stop stop-opacity="1" stop-color="rgb(94.921875%, 57.637024%, 23.622131%)" offset="0.398437"/><stop stop-opacity="1" stop-color="rgb(94.889832%, 57.420349%, 23.64502%)" offset="0.40625"/><stop stop-opacity="1" stop-color="rgb(94.859314%, 57.202148%, 23.669434%)" offset="0.414062"/><stop stop-opacity="1" stop-color="rgb(94.827271%, 56.985474%, 23.693848%)" offset="0.421875"/><stop stop-opacity="1" stop-color="rgb(94.796753%, 56.768799%, 23.718262%)" offset="0.429687"/><stop stop-opacity="1" stop-color="rgb(94.764709%, 56.552124%, 23.742676%)" offset="0.4375"/><stop stop-opacity="1" stop-color="rgb(94.734192%, 56.333923%, 23.76709%)" offset="0.445312"/><stop stop-opacity="1" stop-color="rgb(94.703674%, 56.117249%, 23.791504%)" offset="0.453125"/><stop stop-opacity="1" stop-color="rgb(94.671631%, 55.900574%, 23.815918%)" offset="0.460937"/><stop stop-opacity="1" stop-color="rgb(94.641113%, 55.682373%, 23.838806%)" offset="0.46875"/><stop stop-opacity="1" stop-color="rgb(94.60907%, 55.465698%, 23.86322%)" offset="0.476562"/><stop stop-opacity="1" stop-color="rgb(94.578552%, 55.249023%, 23.887634%)" offset="0.484375"/><stop stop-opacity="1" stop-color="rgb(94.546509%, 55.032349%, 23.912048%)" offset="0.492187"/><stop stop-opacity="1" stop-color="rgb(94.515991%, 54.814148%, 23.936462%)" offset="0.5"/><stop stop-opacity="1" stop-color="rgb(94.483948%, 54.597473%, 23.960876%)" offset="0.507813"/><stop stop-opacity="1" stop-color="rgb(94.45343%, 54.380798%, 23.985291%)" offset="0.515625"/><stop stop-opacity="1" stop-color="rgb(94.421387%, 54.164124%, 24.008179%)" offset="0.523438"/><stop stop-opacity="1" stop-color="rgb(94.390869%, 53.945923%, 24.032593%)" offset="0.53125"/><stop stop-opacity="1" stop-color="rgb(94.358826%, 53.729248%, 24.057007%)" offset="0.539062"/><stop stop-opacity="1" stop-color="rgb(94.328308%, 53.512573%, 24.081421%)" offset="0.546875"/><stop stop-opacity="1" stop-color="rgb(94.296265%, 53.295898%, 24.105835%)" offset="0.554688"/><stop stop-opacity="1" stop-color="rgb(94.265747%, 53.077698%, 24.130249%)" offset="0.5625"/><stop stop-opacity="1" stop-color="rgb(94.233704%, 52.861023%, 24.154663%)" offset="0.570312"/><stop stop-opacity="1" stop-color="rgb(94.203186%, 52.644348%, 24.177551%)" offset="0.578125"/><stop stop-opacity="1" stop-color="rgb(94.172668%, 52.427673%, 24.201965%)" offset="0.585938"/><stop stop-opacity="1" stop-color="rgb(94.140625%, 52.209473%, 24.226379%)" offset="0.59375"/><stop stop-opacity="1" stop-color="rgb(94.110107%, 51.992798%, 24.250793%)" offset="0.601562"/><stop stop-opacity="1" stop-color="rgb(94.078064%, 51.776123%, 24.275208%)" offset="0.609375"/><stop stop-opacity="1" stop-color="rgb(94.047546%, 51.559448%, 24.299622%)" offset="0.617187"/><stop stop-opacity="1" stop-color="rgb(94.015503%, 51.341248%, 24.324036%)" offset="0.625"/><stop stop-opacity="1" stop-color="rgb(93.984985%, 51.124573%, 24.34845%)" offset="0.632812"/><stop stop-opacity="1" stop-color="rgb(93.952942%, 50.907898%, 24.371338%)" offset="0.640625"/><stop stop-opacity="1" stop-color="rgb(93.922424%, 50.689697%, 24.395752%)" offset="0.648438"/><stop stop-opacity="1" stop-color="rgb(93.890381%, 50.473022%, 24.420166%)" offset="0.65625"/><stop stop-opacity="1" stop-color="rgb(93.859863%, 50.256348%, 24.44458%)" offset="0.664062"/><stop stop-opacity="1" stop-color="rgb(93.82782%, 50.039673%, 24.468994%)" offset="0.671875"/><stop stop-opacity="1" stop-color="rgb(93.797302%, 49.821472%, 24.493408%)" offset="0.679688"/><stop stop-opacity="1" stop-color="rgb(93.765259%, 49.604797%, 24.517822%)" offset="0.6875"/><stop stop-opacity="1" stop-color="rgb(93.734741%, 49.388123%, 24.54071%)" offset="0.695312"/><stop stop-opacity="1" stop-color="rgb(93.704224%, 49.171448%, 24.565125%)" offset="0.703125"/><stop stop-opacity="1" stop-color="rgb(93.67218%, 48.953247%, 24.589539%)" offset="0.710937"/><stop stop-opacity="1" stop-color="rgb(93.641663%, 48.736572%, 24.613953%)" offset="0.71875"/><stop stop-opacity="1" stop-color="rgb(93.609619%, 48.519897%, 24.638367%)" offset="0.726562"/><stop stop-opacity="1" stop-color="rgb(93.579102%, 48.303223%, 24.662781%)" offset="0.734375"/><stop stop-opacity="1" stop-color="rgb(93.547058%, 48.085022%, 24.687195%)" offset="0.742187"/><stop stop-opacity="1" stop-color="rgb(93.516541%, 47.868347%, 24.710083%)" offset="0.75"/><stop stop-opacity="1" stop-color="rgb(93.484497%, 47.651672%, 24.734497%)" offset="0.757812"/><stop stop-opacity="1" stop-color="rgb(93.453979%, 47.434998%, 24.758911%)" offset="0.765625"/><stop stop-opacity="1" stop-color="rgb(93.421936%, 47.216797%, 24.783325%)" offset="0.773437"/><stop stop-opacity="1" stop-color="rgb(93.391418%, 47.000122%, 24.807739%)" offset="0.78125"/><stop stop-opacity="1" stop-color="rgb(93.359375%, 46.783447%, 24.832153%)" offset="0.789062"/><stop stop-opacity="1" stop-color="rgb(93.328857%, 46.565247%, 24.856567%)" offset="0.796875"/><stop stop-opacity="1" stop-color="rgb(93.296814%, 46.348572%, 24.880981%)" offset="0.804688"/><stop stop-opacity="1" stop-color="rgb(93.266296%, 46.131897%, 24.90387%)" offset="0.8125"/><stop stop-opacity="1" stop-color="rgb(93.234253%, 45.915222%, 24.928284%)" offset="0.820312"/><stop stop-opacity="1" stop-color="rgb(93.203735%, 45.697021%, 24.952698%)" offset="0.828125"/><stop stop-opacity="1" stop-color="rgb(93.173218%, 45.480347%, 24.977112%)" offset="0.835937"/><stop stop-opacity="1" stop-color="rgb(93.141174%, 45.263672%, 25.001526%)" offset="0.84375"/><stop stop-opacity="1" stop-color="rgb(93.110657%, 45.046997%, 25.02594%)" offset="0.851562"/><stop stop-opacity="1" stop-color="rgb(93.078613%, 44.828796%, 25.050354%)" offset="0.859375"/><stop stop-opacity="1" stop-color="rgb(93.048096%, 44.612122%, 25.073242%)" offset="0.867187"/><stop stop-opacity="1" stop-color="rgb(93.016052%, 44.395447%, 25.097656%)" offset="0.875"/><stop stop-opacity="1" stop-color="rgb(92.985535%, 44.178772%, 25.12207%)" offset="0.882812"/><stop stop-opacity="1" stop-color="rgb(92.953491%, 43.960571%, 25.146484%)" offset="0.890625"/><stop stop-opacity="1" stop-color="rgb(92.922974%, 43.743896%, 25.170898%)" offset="0.898437"/><stop stop-opacity="1" stop-color="rgb(92.89093%, 43.527222%, 25.195312%)" offset="0.90625"/><stop stop-opacity="1" stop-color="rgb(92.860413%, 43.310547%, 25.219727%)" offset="0.914062"/><stop stop-opacity="1" stop-color="rgb(92.828369%, 43.092346%, 25.242615%)" offset="0.921875"/><stop stop-opacity="1" stop-color="rgb(92.797852%, 42.875671%, 25.267029%)" offset="0.929688"/><stop stop-opacity="1" stop-color="rgb(92.765808%, 42.658997%, 25.291443%)" offset="0.9375"/><stop stop-opacity="1" stop-color="rgb(92.735291%, 42.442322%, 25.315857%)" offset="0.945313"/><stop stop-opacity="1" stop-color="rgb(92.703247%, 42.224121%, 25.340271%)" offset="0.953125"/><stop stop-opacity="1" stop-color="rgb(92.672729%, 42.007446%, 25.364685%)" offset="0.960938"/><stop stop-opacity="1" stop-color="rgb(92.642212%, 41.790771%, 25.389099%)" offset="0.96875"/><stop stop-opacity="1" stop-color="rgb(92.610168%, 41.572571%, 25.413513%)" offset="0.976562"/><stop stop-opacity="1" stop-color="rgb(92.579651%, 41.355896%, 25.436401%)" offset="0.984375"/><stop stop-opacity="1" stop-color="rgb(92.547607%, 41.139221%, 25.460815%)" offset="0.992188"/><stop stop-opacity="1" stop-color="rgb(92.51709%, 40.922546%, 25.485229%)" offset="1"/></linearGradient></defs><g clip-path="url(#46062bb391)"><g clip-path="url(#f8d4b6dcdf)"><path fill="url(#b737705e2e)" d="M 1.035156 0 L 1.035156 37.996094 L 139.214844 37.996094 L 139.214844 0 Z M 1.035156 0 " fill-rule="nonzero"/></g></g><g fill="#fffaf2" fill-opacity="1"><g transform="translate(16.00092, 22.169116)"><g><path d="M 5.671875 -9.765625 L 9.609375 0 L 7.21875 0 L 6.5 -1.953125 L 2.78125 -1.953125 L 2.0625 0 L -0.328125 0 L 3.609375 -9.765625 Z M 5.734375 -3.90625 L 4.65625 -6.734375 L 4.625 -6.734375 L 3.53125 -3.90625 Z M 5.734375 -3.90625 "/></g></g></g><g fill="#fffaf2" fill-opacity="1"><g transform="translate(25.270582, 22.169116)"><g><path d="M 1.109375 -0.75 C 0.546875 -1.363281 0.265625 -2.117188 0.265625 -3.015625 C 0.265625 -3.921875 0.546875 -4.6875 1.109375 -5.3125 C 1.679688 -5.9375 2.40625 -6.25 3.28125 -6.25 C 4.09375 -6.25 4.757812 -5.992188 5.28125 -5.484375 L 5.28125 -10.171875 L 7.375 -10.171875 L 7.375 0 L 5.296875 0 L 5.296875 -0.6875 L 5.28125 -0.6875 C 4.757812 -0.113281 4.09375 0.171875 3.28125 0.171875 C 2.40625 0.171875 1.679688 -0.132812 1.109375 -0.75 Z M 2.90625 -4.046875 C 2.632812 -3.785156 2.5 -3.445312 2.5 -3.03125 C 2.5 -2.613281 2.628906 -2.269531 2.890625 -2 C 3.148438 -1.738281 3.492188 -1.609375 3.921875 -1.609375 C 4.328125 -1.609375 4.660156 -1.738281 4.921875 -2 C 5.191406 -2.269531 5.328125 -2.613281 5.328125 -3.03125 C 5.328125 -3.445312 5.1875 -3.785156 4.90625 -4.046875 C 4.632812 -4.316406 4.304688 -4.453125 3.921875 -4.453125 C 3.515625 -4.453125 3.175781 -4.316406 2.90625 -4.046875 Z M 2.90625 -4.046875 "/></g></g></g><g fill="#fffaf2" fill-opacity="1"><g transform="translate(33.34607, 22.169116)"><g><path d="M 1.109375 -0.75 C 0.546875 -1.363281 0.265625 -2.117188 0.265625 -3.015625 C 0.265625 -3.921875 0.546875 -4.6875 1.109375 -5.3125 C 1.679688 -5.9375 2.40625 -6.25 3.28125 -6.25 C 4.09375 -6.25 4.757812 -5.992188 5.28125 -5.484375 L 5.28125 -10.171875 L 7.375 -10.171875 L 7.375 0 L 5.296875 0 L 5.296875 -0.6875 L 5.28125 -0.6875 C 4.757812 -0.113281 4.09375 0.171875 3.28125 0.171875 C 2.40625 0.171875 1.679688 -0.132812 1.109375 -0.75 Z M 2.90625 -4.046875 C 2.632812 -3.785156 2.5 -3.445312 2.5 -3.03125 C 2.5 -2.613281 2.628906 -2.269531 2.890625 -2 C 3.148438 -1.738281 3.492188 -1.609375 3.921875 -1.609375 C 4.328125 -1.609375 4.660156 -1.738281 4.921875 -2 C 5.191406 -2.269531 5.328125 -2.613281 5.328125 -3.03125 C 5.328125 -3.445312 5.1875 -3.785156 4.90625 -4.046875 C 4.632812 -4.316406 4.304688 -4.453125 3.921875 -4.453125 C 3.515625 -4.453125 3.175781 -4.316406 2.90625 -4.046875 Z M 2.90625 -4.046875 "/></g></g></g><g fill="#fffaf2" fill-opacity="1"><g transform="translate(41.421558, 22.169116)"><g/></g></g><g fill="#fffaf2" fill-opacity="1"><g transform="translate(44.64939, 22.169116)"><g><path d="M 2.9375 -6.0625 L 2.9375 0 L 0.703125 0 L 0.703125 -9.765625 L 2.9375 -9.765625 L 6.8125 -3.703125 L 6.84375 -3.703125 L 6.84375 -9.765625 L 9.0625 -9.765625 L 9.0625 0 L 6.84375 0 L 2.953125 -6.0625 Z M 2.9375 -6.0625 "/></g></g></g><g fill="#fffaf2" fill-opacity="1"><g transform="translate(54.41565, 22.169116)"><g><path d="M 6.84375 -2.75 L 2.453125 -2.75 C 2.453125 -2.320312 2.585938 -2.003906 2.859375 -1.796875 C 3.140625 -1.585938 3.441406 -1.484375 3.765625 -1.484375 C 4.097656 -1.484375 4.363281 -1.53125 4.5625 -1.625 C 4.757812 -1.71875 4.984375 -1.898438 5.234375 -2.171875 L 6.75 -1.40625 C 6.125 -0.351562 5.078125 0.171875 3.609375 0.171875 C 2.691406 0.171875 1.90625 -0.140625 1.25 -0.765625 C 0.59375 -1.390625 0.265625 -2.144531 0.265625 -3.03125 C 0.265625 -3.914062 0.59375 -4.671875 1.25 -5.296875 C 1.90625 -5.929688 2.691406 -6.25 3.609375 -6.25 C 4.566406 -6.25 5.347656 -5.96875 5.953125 -5.40625 C 6.554688 -4.851562 6.859375 -4.0625 6.859375 -3.03125 C 6.859375 -2.882812 6.851562 -2.789062 6.84375 -2.75 Z M 2.5 -3.90625 L 4.8125 -3.90625 C 4.769531 -4.21875 4.644531 -4.457031 4.4375 -4.625 C 4.238281 -4.800781 3.984375 -4.890625 3.671875 -4.890625 C 3.316406 -4.890625 3.035156 -4.796875 2.828125 -4.609375 C 2.628906 -4.429688 2.519531 -4.195312 2.5 -3.90625 Z M 2.5 -3.90625 "/></g></g></g><g fill="#fffaf2" fill-opacity="1"><g transform="translate(61.545256, 22.169116)"><g><path d="M 4.4375 0 L 3.015625 0 L -0.234375 -6.0625 L 2.171875 -6.0625 L 3.65625 -2.796875 L 5.109375 -6.0625 L 6.546875 -6.0625 L 8 -2.796875 L 9.484375 -6.0625 L 11.90625 -6.0625 L 8.640625 0 L 7.234375 0 L 5.828125 -3.140625 Z M 4.4375 0 "/></g></g></g><g fill="#fffaf2" fill-opacity="1"><g transform="translate(73.203279, 22.169116)"><g/></g></g><g fill="#fffaf2" fill-opacity="1"><g transform="translate(76.431111, 22.169116)"><g><path d="M 0.703125 -9.765625 L 4.265625 -9.765625 C 5.265625 -9.765625 6.070312 -9.503906 6.6875 -8.984375 C 7.300781 -8.472656 7.609375 -7.726562 7.609375 -6.75 C 7.609375 -5.769531 7.296875 -5.003906 6.671875 -4.453125 C 6.046875 -3.898438 5.242188 -3.625 4.265625 -3.625 L 2.9375 -3.625 L 2.9375 0 L 0.703125 0 Z M 2.9375 -5.390625 L 3.5625 -5.390625 C 4.0625 -5.390625 4.46875 -5.488281 4.78125 -5.6875 C 5.101562 -5.894531 5.265625 -6.226562 5.265625 -6.6875 C 5.265625 -7.144531 5.101562 -7.472656 4.78125 -7.671875 C 4.46875 -7.878906 4.0625 -7.984375 3.5625 -7.984375 L 2.9375 -7.984375 Z M 2.9375 -5.390625 "/></g></g></g><g fill="#fffaf2" fill-opacity="1"><g transform="translate(84.305596, 22.169116)"><g><path d="M 0.703125 0 L 0.703125 -6.0625 L 2.796875 -6.0625 L 2.796875 -5.1875 L 2.828125 -5.1875 C 2.835938 -5.21875 2.859375 -5.253906 2.890625 -5.296875 C 2.929688 -5.347656 3.007812 -5.429688 3.125 -5.546875 C 3.25 -5.671875 3.378906 -5.78125 3.515625 -5.875 C 3.648438 -5.96875 3.820312 -6.050781 4.03125 -6.125 C 4.25 -6.207031 4.46875 -6.25 4.6875 -6.25 C 4.914062 -6.25 5.140625 -6.21875 5.359375 -6.15625 C 5.578125 -6.09375 5.738281 -6.03125 5.84375 -5.96875 L 6.015625 -5.859375 L 5.140625 -4.09375 C 4.878906 -4.3125 4.515625 -4.421875 4.046875 -4.421875 C 3.796875 -4.421875 3.578125 -4.363281 3.390625 -4.25 C 3.210938 -4.144531 3.082031 -4.015625 3 -3.859375 C 2.925781 -3.703125 2.875 -3.566406 2.84375 -3.453125 C 2.8125 -3.335938 2.796875 -3.25 2.796875 -3.1875 L 2.796875 0 Z M 0.703125 0 "/></g></g></g><g fill="#fffaf2" fill-opacity="1"><g transform="translate(90.193727, 22.169116)"><g><path d="M 1.28125 -0.71875 C 0.601562 -1.320312 0.265625 -2.09375 0.265625 -3.03125 C 0.265625 -3.96875 0.613281 -4.738281 1.3125 -5.34375 C 2.019531 -5.945312 2.890625 -6.25 3.921875 -6.25 C 4.941406 -6.25 5.800781 -5.941406 6.5 -5.328125 C 7.195312 -4.722656 7.546875 -3.953125 7.546875 -3.015625 C 7.546875 -2.085938 7.203125 -1.320312 6.515625 -0.71875 C 5.835938 -0.125 4.972656 0.171875 3.921875 0.171875 C 2.835938 0.171875 1.957031 -0.125 1.28125 -0.71875 Z M 2.90625 -4.046875 C 2.632812 -3.785156 2.5 -3.445312 2.5 -3.03125 C 2.5 -2.613281 2.628906 -2.269531 2.890625 -2 C 3.148438 -1.738281 3.492188 -1.609375 3.921875 -1.609375 C 4.328125 -1.609375 4.660156 -1.738281 4.921875 -2 C 5.191406 -2.269531 5.328125 -2.613281 5.328125 -3.03125 C 5.328125 -3.445312 5.1875 -3.785156 4.90625 -4.046875 C 4.632812 -4.316406 4.304688 -4.453125 3.921875 -4.453125 C 3.515625 -4.453125 3.175781 -4.316406 2.90625 -4.046875 Z M 2.90625 -4.046875 "/></g></g></g><g fill="#fffaf2" fill-opacity="1"><g transform="translate(98.009093, 22.169116)"><g><path d="M 1.109375 -0.75 C 0.546875 -1.363281 0.265625 -2.117188 0.265625 -3.015625 C 0.265625 -3.921875 0.546875 -4.6875 1.109375 -5.3125 C 1.679688 -5.9375 2.40625 -6.25 3.28125 -6.25 C 4.09375 -6.25 4.757812 -5.992188 5.28125 -5.484375 L 5.28125 -10.171875 L 7.375 -10.171875 L 7.375 0 L 5.296875 0 L 5.296875 -0.6875 L 5.28125 -0.6875 C 4.757812 -0.113281 4.09375 0.171875 3.28125 0.171875 C 2.40625 0.171875 1.679688 -0.132812 1.109375 -0.75 Z M 2.90625 -4.046875 C 2.632812 -3.785156 2.5 -3.445312 2.5 -3.03125 C 2.5 -2.613281 2.628906 -2.269531 2.890625 -2 C 3.148438 -1.738281 3.492188 -1.609375 3.921875 -1.609375 C 4.328125 -1.609375 4.660156 -1.738281 4.921875 -2 C 5.191406 -2.269531 5.328125 -2.613281 5.328125 -3.03125 C 5.328125 -3.445312 5.1875 -3.785156 4.90625 -4.046875 C 4.632812 -4.316406 4.304688 -4.453125 3.921875 -4.453125 C 3.515625 -4.453125 3.175781 -4.316406 2.90625 -4.046875 Z M 2.90625 -4.046875 "/></g></g></g><g fill="#fffaf2" fill-opacity="1"><g transform="translate(106.084581, 22.169116)"><g><path d="M 2.6875 -6.0625 L 2.6875 -3.1875 C 2.6875 -2.582031 2.773438 -2.15625 2.953125 -1.90625 C 3.140625 -1.65625 3.445312 -1.53125 3.875 -1.53125 C 4.3125 -1.53125 4.617188 -1.65625 4.796875 -1.90625 C 4.984375 -2.15625 5.078125 -2.582031 5.078125 -3.1875 L 5.078125 -6.0625 L 7.171875 -6.0625 L 7.171875 -2.671875 C 7.171875 -1.660156 6.90625 -0.929688 6.375 -0.484375 C 5.851562 -0.046875 5.019531 0.171875 3.875 0.171875 C 2.738281 0.171875 1.90625 -0.046875 1.375 -0.484375 C 0.851562 -0.929688 0.59375 -1.660156 0.59375 -2.671875 L 0.59375 -6.0625 Z M 2.6875 -6.0625 "/></g></g></g><g fill="#fffaf2" fill-opacity="1"><g transform="translate(113.840829, 22.169116)"><g><path d="M 3.9375 -4.53125 C 3.539062 -4.53125 3.203125 -4.382812 2.921875 -4.09375 C 2.640625 -3.800781 2.5 -3.453125 2.5 -3.046875 C 2.5 -2.617188 2.640625 -2.257812 2.921875 -1.96875 C 3.203125 -1.675781 3.539062 -1.53125 3.9375 -1.53125 C 4.125 -1.53125 4.300781 -1.550781 4.46875 -1.59375 C 4.644531 -1.644531 4.769531 -1.695312 4.84375 -1.75 L 4.953125 -1.828125 L 5.671875 -0.359375 C 5.609375 -0.328125 5.523438 -0.28125 5.421875 -0.21875 C 5.328125 -0.15625 5.101562 -0.078125 4.75 0.015625 C 4.40625 0.117188 4.03125 0.171875 3.625 0.171875 C 2.738281 0.171875 1.957031 -0.140625 1.28125 -0.765625 C 0.601562 -1.390625 0.265625 -2.140625 0.265625 -3.015625 C 0.265625 -3.898438 0.601562 -4.660156 1.28125 -5.296875 C 1.957031 -5.929688 2.738281 -6.25 3.625 -6.25 C 4.03125 -6.25 4.398438 -6.203125 4.734375 -6.109375 C 5.078125 -6.015625 5.320312 -5.914062 5.46875 -5.8125 L 5.671875 -5.671875 L 4.953125 -4.25 C 4.691406 -4.4375 4.351562 -4.53125 3.9375 -4.53125 Z M 3.9375 -4.53125 "/></g></g></g><g fill="#fffaf2" fill-opacity="1"><g transform="translate(119.646195, 22.169116)"><g><path d="M 1.0625 -6.0625 L 1.0625 -8.328125 L 3.15625 -8.328125 L 3.15625 -6.0625 L 4.4375 -6.0625 L 4.4375 -4.46875 L 3.15625 -4.46875 L 3.15625 -2.546875 C 3.15625 -1.984375 3.3125 -1.703125 3.625 -1.703125 C 3.707031 -1.703125 3.789062 -1.71875 3.875 -1.75 C 3.96875 -1.78125 4.035156 -1.8125 4.078125 -1.84375 L 4.15625 -1.890625 L 4.671875 -0.203125 C 4.222656 0.046875 3.710938 0.171875 3.140625 0.171875 C 2.742188 0.171875 2.398438 0.101562 2.109375 -0.03125 C 1.828125 -0.164062 1.613281 -0.347656 1.46875 -0.578125 C 1.320312 -0.816406 1.21875 -1.0625 1.15625 -1.3125 C 1.09375 -1.570312 1.0625 -1.847656 1.0625 -2.140625 L 1.0625 -4.46875 L 0.1875 -4.46875 L 0.1875 -6.0625 Z M 1.0625 -6.0625 "/></g></g></g><g fill="#ee7340" fill-opacity="1"><g transform="translate(114.244331, 36.277426)"><g><path d="M 7.203125 -6.390625 L 7.203125 -5.171875 L 0.921875 -5.171875 L 0.921875 -6.390625 Z M 7.203125 -6.390625 "/></g></g></g><g fill="#ee7340" fill-opacity="1"><g transform="translate(122.938781, 36.277426)"><g/></g></g></svg>