<svg xmlns="http://www.w3.org/2000/svg" xmlns:xlink="http://www.w3.org/1999/xlink" width="41" zoomAndPan="magnify" viewBox="0 0 30.75 38.999999" height="52" preserveAspectRatio="xMidYMid meet" version="1.0"><defs><g/><clipPath id="c0cdcf016b"><path d="M 0 3.339844 L 30.503906 3.339844 L 30.503906 12 L 0 12 Z M 0 3.339844 " clip-rule="nonzero"/></clipPath><clipPath id="e39a2fc08a"><path d="M 2 14 L 29 14 L 29 38.304688 L 2 38.304688 Z M 2 14 " clip-rule="nonzero"/></clipPath></defs><g clip-path="url(#c0cdcf016b)"><path fill="#37406a" d="M 29.390625 7.613281 L 21.769531 7.613281 L 21.769531 4.429688 C 21.769531 3.832031 21.28125 3.34375 20.683594 3.34375 L 9.796875 3.34375 C 9.199219 3.34375 8.707031 3.832031 8.707031 4.429688 L 8.707031 7.613281 L 1.089844 7.613281 C 0.488281 7.613281 0 8.105469 0 8.703125 L 0 10.878906 C 0 11.480469 0.488281 11.96875 1.089844 11.96875 L 29.390625 11.96875 C 29.988281 11.96875 30.480469 11.480469 30.480469 10.878906 L 30.480469 8.703125 C 30.480469 8.105469 29.988281 7.613281 29.390625 7.613281 Z M 29.390625 7.613281 " fill-opacity="1" fill-rule="nonzero"/></g><g clip-path="url(#e39a2fc08a)"><path fill="#37406a" d="M 4.789062 37.222656 C 4.84375 37.765625 5.304688 38.175781 5.878906 38.175781 L 24.628906 38.175781 C 25.171875 38.175781 25.636719 37.765625 25.714844 37.222656 L 28.328125 14.253906 L 2.175781 14.253906 Z M 19.59375 33.683594 L 21.5 18.472656 C 21.578125 17.875 22.125 17.464844 22.722656 17.519531 C 23.320312 17.601562 23.730469 18.144531 23.675781 18.746094 L 21.769531 33.957031 C 21.6875 34.5 21.226562 34.910156 20.683594 34.910156 C 20.628906 34.910156 20.601562 34.910156 20.546875 34.910156 C 19.949219 34.828125 19.539062 34.285156 19.59375 33.683594 Z M 14.152344 18.609375 C 14.152344 18.011719 14.640625 17.519531 15.238281 17.519531 C 15.839844 17.519531 16.328125 18.011719 16.328125 18.609375 L 16.328125 33.820312 C 16.328125 34.417969 15.839844 34.910156 15.238281 34.910156 C 14.640625 34.910156 14.152344 34.417969 14.152344 33.820312 Z M 7.753906 17.519531 C 8.355469 17.4375 8.898438 17.875 8.980469 18.472656 L 10.886719 33.683594 C 10.96875 34.285156 10.53125 34.828125 9.933594 34.910156 C 9.878906 34.910156 9.851562 34.910156 9.796875 34.910156 C 9.253906 34.910156 8.789062 34.5 8.707031 33.957031 L 6.804688 18.746094 C 6.75 18.144531 7.15625 17.601562 7.753906 17.519531 Z M 7.753906 17.519531 " fill-opacity="1" fill-rule="nonzero"/></g><g fill="#37406a" fill-opacity="1"><g transform="translate(8.754267, 22.620616)"><g><path d="M 7.265625 -6.421875 L 7.265625 -5.203125 L 0.921875 -5.203125 L 0.921875 -6.421875 Z M 7.265625 -6.421875 "/></g></g></g><g fill="#37406a" fill-opacity="1"><g transform="translate(17.507322, 22.620616)"><g/></g></g></svg>